<svg xmlns="http://www.w3.org/2000/svg" xmlns:xlink="http://www.w3.org/1999/xlink" width="500" zoomAndPan="magnify" viewBox="0 0 375 374.999991" height="500" preserveAspectRatio="xMidYMid meet" version="1.0"><defs><clipPath id="3f75b9ae76"><path d="M 112.5 121.5 L 262 121.5 L 262 226 L 112.5 226 Z M 112.5 121.5 " clip-rule="nonzero"/></clipPath><clipPath id="73f8fc455b"><path d="M 151 233 L 223 233 L 223 253.5 L 151 253.5 Z M 151 233 " clip-rule="nonzero"/></clipPath></defs><g clip-path="url(#3f75b9ae76)"><path fill="#000000" d="M 255.070312 225.535156 L 119.574219 225.535156 C 115.921875 225.535156 112.953125 222.566406 112.953125 219.003906 L 112.953125 128.121094 C 112.953125 124.457031 115.921875 121.503906 119.574219 121.503906 L 255.070312 121.503906 C 258.722656 121.503906 261.691406 124.457031 261.691406 128.121094 L 261.691406 219.003906 C 261.691406 222.652344 258.722656 225.535156 255.070312 225.535156 Z M 119.574219 124.984375 C 117.839844 124.984375 116.433594 126.375 116.433594 128.121094 L 116.433594 219.003906 C 116.433594 220.75 117.839844 222.058594 119.574219 222.058594 L 255.070312 222.058594 C 256.804688 222.058594 258.109375 220.652344 258.109375 219.003906 L 258.109375 128.121094 C 258.109375 126.375 256.71875 124.984375 255.070312 124.984375 Z M 119.574219 124.984375 " fill-opacity="1" fill-rule="evenodd"/></g><path fill="#000000" d="M 259.941406 207.851562 L 114.703125 207.851562 C 112.429688 207.851562 112.429688 204.359375 114.703125 204.359375 L 259.941406 204.359375 C 262.214844 204.359375 262.214844 207.851562 259.941406 207.851562 Z M 259.941406 207.851562 " fill-opacity="1" fill-rule="evenodd"/><path fill="#000000" d="M 226.746094 216.730469 C 223.777344 216.730469 220.382812 217.339844 220.382812 214.996094 C 220.382812 212.554688 223.777344 213.25 226.746094 213.25 C 229.105469 213.25 229.105469 216.730469 226.746094 216.730469 Z M 226.746094 216.730469 " fill-opacity="1" fill-rule="evenodd"/><path fill="#000000" d="M 239.035156 216.730469 C 236.066406 216.730469 232.671875 217.339844 232.671875 214.996094 C 232.671875 212.554688 236.066406 213.25 239.035156 213.25 C 241.390625 213.25 241.390625 216.730469 239.035156 216.730469 Z M 239.035156 216.730469 " fill-opacity="1" fill-rule="evenodd"/><path fill="#000000" d="M 251.320312 216.730469 C 248.351562 216.730469 244.957031 217.339844 244.957031 214.996094 C 244.957031 212.554688 248.351562 213.25 251.320312 213.25 C 253.578125 213.25 253.578125 216.730469 251.320312 216.730469 Z M 251.320312 216.730469 " fill-opacity="1" fill-rule="evenodd"/><path fill="#000000" d="M 195.46875 237.738281 C 194.503906 237.738281 193.722656 236.941406 193.722656 235.992188 L 193.722656 223.789062 C 193.722656 221.53125 197.214844 221.53125 197.214844 223.789062 L 197.214844 235.992188 C 197.214844 236.941406 196.421875 237.738281 195.46875 237.738281 Z M 179.175781 237.738281 C 178.210938 237.738281 177.429688 236.941406 177.429688 235.992188 L 177.429688 223.789062 C 177.429688 221.53125 180.921875 221.53125 180.921875 223.789062 L 180.921875 235.992188 C 180.921875 236.941406 180.128906 237.738281 179.175781 237.738281 Z M 179.175781 237.738281 " fill-opacity="1" fill-rule="evenodd"/><g clip-path="url(#73f8fc455b)"><path fill="#000000" d="M 221.164062 253.421875 L 153.464844 253.421875 C 146.675781 253.421875 160.527344 233.632812 187.273438 233.632812 C 214.019531 233.632812 227.882812 253.421875 221.164062 253.421875 Z M 156.605469 249.925781 L 218.039062 249.925781 C 205.566406 232.851562 168.976562 232.851562 156.605469 249.925781 Z M 156.605469 249.925781 " fill-opacity="1" fill-rule="evenodd"/></g><path fill="#000000" d="M 180.652344 195.296875 L 127.5 195.296875 C 124.972656 195.296875 122.96875 193.292969 122.96875 190.765625 L 122.96875 150.167969 C 122.96875 147.640625 124.972656 145.636719 127.5 145.636719 L 180.652344 145.636719 C 183.183594 145.636719 185.183594 147.640625 185.183594 150.167969 C 185.183594 153.5625 185.878906 157.226562 183.4375 157.226562 C 179.703125 157.226562 183.4375 149.117188 180.652344 149.117188 L 127.5 149.117188 C 126.890625 149.117188 126.464844 149.558594 126.464844 150.167969 L 126.464844 190.765625 C 126.464844 191.375 126.988281 191.816406 127.5 191.816406 L 180.652344 191.816406 C 181.265625 191.816406 181.703125 191.375 181.703125 190.765625 L 181.703125 174.910156 C 181.703125 172.652344 185.183594 172.652344 185.183594 174.910156 L 185.183594 190.765625 C 185.183594 193.292969 183.183594 195.296875 180.652344 195.296875 Z M 180.652344 195.296875 " fill-opacity="1" fill-rule="evenodd"/><path fill="#000000" d="M 154.601562 195.296875 L 127.414062 195.296875 C 121.847656 195.296875 122.714844 186.941406 123.324219 186.234375 L 131.421875 175.265625 C 134.558594 170.992188 139.972656 170.90625 143.097656 175.167969 L 155.996094 192.511719 C 156.777344 193.734375 155.996094 195.296875 154.601562 195.296875 Z M 126.464844 187.808594 C 126.464844 189.117188 126.109375 191.816406 127.414062 191.816406 L 151.121094 191.816406 L 140.3125 177.269531 C 138.566406 174.828125 135.953125 174.910156 134.21875 177.355469 Z M 126.464844 187.808594 " fill-opacity="1" fill-rule="evenodd"/><path fill="#000000" d="M 180.738281 195.296875 L 154.601562 195.296875 C 153.992188 195.296875 153.464844 195.039062 153.210938 194.597656 L 147.714844 187.199219 C 147.285156 186.589844 147.285156 185.722656 147.8125 185.109375 L 165.496094 164.203125 C 170.285156 158.535156 179.433594 159.402344 178.308594 162.894531 C 177.171875 166.105469 172.898438 160.707031 168.109375 166.460938 L 151.378906 186.234375 L 155.46875 191.816406 L 180.738281 191.816406 C 181.179688 191.816406 181.703125 191.289062 181.703125 190.421875 L 181.703125 174.910156 C 181.703125 172.652344 185.183594 172.652344 185.183594 174.910156 L 185.183594 190.421875 C 185.183594 193.121094 183.183594 195.296875 180.738281 195.296875 Z M 180.738281 195.296875 " fill-opacity="1" fill-rule="evenodd"/><path fill="#000000" d="M 143.976562 167.328125 C 134.21875 167.328125 134.21875 152.425781 143.976562 152.425781 C 153.734375 152.425781 153.734375 167.328125 143.976562 167.328125 Z M 143.976562 155.921875 C 138.75 155.921875 138.75 163.847656 143.976562 163.847656 C 149.203125 163.847656 149.203125 155.921875 143.976562 155.921875 Z M 143.976562 155.921875 " fill-opacity="1" fill-rule="evenodd"/><path fill="#000000" d="M 177.429688 182.753906 C 176.902344 182.753906 176.476562 182.582031 176.121094 182.226562 L 166.449219 172.554688 C 165.753906 171.859375 165.753906 170.734375 166.449219 170.039062 L 197.558594 138.933594 C 198.167969 138.320312 199.390625 138.320312 200 138.933594 L 209.757812 148.691406 C 210.371094 149.386719 210.371094 150.421875 209.757812 151.121094 L 178.652344 182.226562 C 178.308594 182.582031 177.871094 182.753906 177.429688 182.753906 Z M 170.113281 171.246094 L 177.429688 178.578125 L 206.007812 149.910156 L 198.777344 142.667969 Z M 170.113281 171.246094 " fill-opacity="1" fill-rule="evenodd"/><path fill="#000000" d="M 163.308594 187.113281 C 162.1875 187.113281 161.308594 185.976562 161.660156 184.839844 L 166.023438 170.820312 C 166.363281 169.515625 168.027344 169.160156 168.890625 170.039062 L 178.652344 179.796875 C 179.515625 180.75 179.175781 182.3125 177.953125 182.667969 Z M 168.453125 174.558594 L 166.023438 182.667969 L 174.121094 180.222656 Z M 168.453125 174.558594 " fill-opacity="1" fill-rule="evenodd"/><path fill="#000000" d="M 172.558594 177.878906 C 170.980469 177.878906 170.199219 176.046875 171.335938 174.910156 L 202.359375 143.804688 C 204.003906 142.242188 206.449219 144.683594 204.871094 146.246094 L 173.777344 177.355469 C 173.421875 177.695312 172.984375 177.878906 172.558594 177.878906 Z M 172.558594 177.878906 " fill-opacity="1" fill-rule="evenodd"/><path fill="#000000" d="M 208.453125 151.644531 C 208.011719 151.644531 207.585938 151.472656 207.230469 151.121094 L 197.558594 141.460938 C 195.808594 139.796875 198.609375 137.878906 200.609375 135.878906 C 203.054688 133.433594 206.875 133.433594 209.316406 135.878906 C 211.933594 138.492188 214.628906 140.410156 214.628906 143.71875 C 214.628906 146.859375 212.203125 148.777344 209.757812 151.121094 C 209.402344 151.472656 208.976562 151.644531 208.453125 151.644531 Z M 201.222656 140.238281 L 208.453125 147.46875 C 212.628906 143.277344 212.015625 143.464844 206.789062 138.320312 C 204.617188 136.046875 202.527344 138.933594 201.222656 140.238281 Z M 201.222656 140.238281 " fill-opacity="1" fill-rule="evenodd"/><path fill="#000000" d="M 249.929688 155.75 L 219.6875 155.75 C 218.734375 155.75 217.953125 154.953125 217.953125 154.003906 L 217.953125 132.652344 C 217.953125 131.703125 218.734375 130.90625 219.6875 130.90625 L 249.929688 130.90625 C 250.878906 130.90625 251.660156 131.703125 251.660156 132.652344 L 251.660156 154.003906 C 251.660156 154.953125 250.878906 155.75 249.929688 155.75 Z M 221.433594 152.253906 L 248.183594 152.253906 L 248.183594 134.402344 L 221.433594 134.402344 Z M 221.433594 152.253906 " fill-opacity="1" fill-rule="evenodd"/><path fill="#000000" d="M 249.929688 177.085938 L 219.6875 177.085938 C 218.734375 177.085938 217.953125 176.304688 217.953125 175.351562 L 217.953125 154.003906 C 217.953125 153.035156 218.734375 152.253906 219.6875 152.253906 L 249.929688 152.253906 C 250.878906 152.253906 251.660156 153.035156 251.660156 154.003906 L 251.660156 175.351562 C 251.660156 176.304688 250.878906 177.085938 249.929688 177.085938 Z M 221.433594 173.605469 L 248.183594 173.605469 L 248.183594 155.75 L 221.433594 155.75 Z M 221.433594 173.605469 " fill-opacity="1" fill-rule="evenodd"/><path fill="#000000" d="M 249.929688 198.433594 L 219.6875 198.433594 C 218.734375 198.433594 217.953125 197.652344 217.953125 196.703125 L 217.953125 175.351562 C 217.953125 174.386719 218.734375 173.605469 219.6875 173.605469 L 249.929688 173.605469 C 250.878906 173.605469 251.660156 174.386719 251.660156 175.351562 L 251.660156 196.703125 C 251.660156 197.652344 250.878906 198.433594 249.929688 198.433594 Z M 221.433594 194.953125 L 248.183594 194.953125 L 248.183594 177.085938 L 221.433594 177.085938 Z M 221.433594 194.953125 " fill-opacity="1" fill-rule="evenodd"/></svg>