<svg xmlns="http://www.w3.org/2000/svg" xmlns:xlink="http://www.w3.org/1999/xlink" width="500" zoomAndPan="magnify" viewBox="0 0 375 374.999991" height="500" preserveAspectRatio="xMidYMid meet" version="1.0"><defs><clipPath id="4affa04f13"><path d="M 213 150 L 236.53125 150 L 236.53125 174 L 213 174 Z M 213 150 " clip-rule="nonzero"/></clipPath><clipPath id="5b9fc5df3b"><path d="M 138.28125 112.5 L 223 112.5 L 223 262.5 L 138.28125 262.5 Z M 138.28125 112.5 " clip-rule="nonzero"/></clipPath></defs><path fill="#000000" d="M 175.710938 225 C 175.710938 230.15625 179.921875 234.375 185.066406 234.375 L 222.496094 234.375 C 227.640625 234.375 231.851562 230.15625 231.851562 225 L 231.851562 187.5 C 231.851562 182.34375 227.640625 178.125 222.496094 178.125 L 185.066406 178.125 C 179.921875 178.125 175.710938 182.34375 175.710938 187.5 Z M 175.710938 225 " fill-opacity="1" fill-rule="nonzero"/><path fill="#000000" d="M 199.21875 173.4375 C 204.25 173.4375 208.460938 169.335938 208.460938 164.179688 L 208.460938 149.882812 C 208.460938 144.84375 204.367188 140.625 199.21875 140.625 L 184.949219 140.625 C 179.921875 140.625 175.710938 144.726562 175.710938 149.882812 L 175.710938 164.296875 C 175.710938 169.335938 179.804688 173.554688 184.949219 173.554688 L 199.21875 173.554688 Z M 199.21875 173.4375 " fill-opacity="1" fill-rule="nonzero"/><g clip-path="url(#4affa04f13)"><path fill="#000000" d="M 213.136719 156.5625 L 213.136719 166.875 C 213.136719 170.507812 216.0625 173.4375 219.6875 173.4375 L 229.980469 173.4375 C 233.605469 173.4375 236.53125 170.507812 236.53125 166.875 L 236.53125 156.5625 C 236.53125 152.929688 233.605469 150 229.980469 150 L 219.6875 150 C 216.0625 150 213.136719 152.929688 213.136719 156.5625 Z M 213.136719 156.5625 " fill-opacity="1" fill-rule="nonzero"/></g><path fill="#000000" d="M 154.1875 178.125 C 150.5625 178.125 147.636719 181.054688 147.636719 184.6875 L 147.636719 195 C 147.636719 198.632812 150.5625 201.5625 154.1875 201.5625 L 164.480469 201.5625 C 168.105469 201.5625 171.03125 198.632812 171.03125 195 L 171.03125 184.6875 C 171.03125 181.054688 168.105469 178.125 164.480469 178.125 Z M 154.1875 178.125 " fill-opacity="1" fill-rule="nonzero"/><g clip-path="url(#5b9fc5df3b)"><path fill="#000000" d="M 147.519531 262.5 L 213.136719 262.5 C 218.285156 262.5 222.378906 258.28125 222.378906 253.125 L 222.378906 239.0625 L 142.960938 239.0625 L 142.960938 135.9375 L 217.816406 135.9375 L 217.816406 145.429688 C 218.402344 145.3125 222.496094 145.3125 222.496094 145.3125 L 222.496094 121.875 C 222.496094 116.71875 218.285156 112.5 213.253906 112.5 L 147.519531 112.5 C 142.375 112.5 138.28125 116.71875 138.28125 121.875 L 138.28125 253.125 C 138.28125 258.28125 142.375 262.5 147.519531 262.5 Z M 171.03125 248.4375 L 189.746094 248.4375 C 191.03125 248.4375 192.085938 249.492188 192.085938 250.78125 C 192.085938 252.070312 191.03125 253.125 189.746094 253.125 L 171.03125 253.125 C 169.746094 253.125 168.691406 252.070312 168.691406 250.78125 C 168.691406 249.492188 169.746094 248.4375 171.03125 248.4375 Z M 189.746094 121.875 C 191.03125 121.875 192.085938 122.929688 192.085938 124.21875 C 192.085938 125.507812 191.03125 126.5625 189.746094 126.5625 C 188.457031 126.5625 187.40625 125.507812 187.40625 124.21875 C 187.40625 122.929688 188.457031 121.875 189.746094 121.875 Z M 180.386719 121.875 C 181.675781 121.875 182.726562 122.929688 182.726562 124.21875 C 182.726562 125.507812 181.675781 126.5625 180.386719 126.5625 C 179.101562 126.5625 178.050781 125.507812 178.050781 124.21875 C 178.050781 122.929688 179.101562 121.875 180.386719 121.875 Z M 171.03125 121.875 C 172.316406 121.875 173.371094 122.929688 173.371094 124.21875 C 173.371094 125.507812 172.316406 126.5625 171.03125 126.5625 C 169.746094 126.5625 168.691406 125.507812 168.691406 124.21875 C 168.691406 122.929688 169.746094 121.875 171.03125 121.875 Z M 171.03125 121.875 " fill-opacity="1" fill-rule="nonzero"/></g></svg>