<svg xmlns="http://www.w3.org/2000/svg" xmlns:xlink="http://www.w3.org/1999/xlink" width="500" zoomAndPan="magnify" viewBox="0 0 375 374.999991" height="500" preserveAspectRatio="xMidYMid meet" version="1.0"><defs><clipPath id="7de70bb6db"><path d="M 113 125.625 L 232 125.625 L 232 239 L 113 239 Z M 113 125.625 " clip-rule="nonzero"/></clipPath></defs><g clip-path="url(#7de70bb6db)"><path fill="#000000" d="M 231.929688 135.167969 L 226.996094 135.167969 L 226.996094 132.753906 C 226.996094 131.363281 225.863281 130.234375 224.476562 130.234375 L 120.902344 130.234375 C 119.488281 130.234375 118.382812 131.363281 118.382812 132.753906 L 118.382812 196.828125 C 118.382812 198.21875 119.515625 199.347656 120.902344 199.347656 L 177.625 199.347656 L 177.625 219.097656 L 166.722656 219.097656 L 163.023438 233.90625 L 177.625 233.90625 L 177.625 238.84375 L 150.472656 238.84375 C 149.085938 238.84375 148.003906 237.738281 148.003906 236.375 C 148.003906 235.0625 149.109375 233.90625 150.5 233.90625 L 156.902344 233.90625 C 157.46875 233.90625 157.980469 233.46875 158.109375 232.953125 L 161.582031 219.097656 L 120.902344 219.097656 C 116.789062 219.097656 113.449219 215.753906 113.449219 211.714844 L 113.449219 132.675781 C 113.449219 128.585938 116.738281 125.296875 120.902344 125.296875 L 224.476562 125.296875 C 228.589844 125.296875 231.929688 128.636719 231.929688 132.675781 Z M 172.691406 214.160156 C 175.414062 214.160156 177.625 211.949219 177.625 209.222656 C 177.625 206.496094 175.414062 204.285156 172.691406 204.285156 C 169.964844 204.285156 167.753906 206.496094 167.753906 209.222656 C 167.753906 211.949219 169.964844 214.160156 172.691406 214.160156 Z M 172.691406 214.160156 " fill-opacity="1" fill-rule="evenodd"/></g><path fill="#000000" d="M 251.679688 159.855469 L 246.742188 159.855469 L 246.742188 149.980469 L 187.5 149.980469 L 187.5 228.96875 L 207.246094 228.96875 L 207.246094 243.78125 L 189.992188 243.78125 C 185.878906 243.78125 182.5625 240.488281 182.5625 236.347656 L 182.5625 147.539062 C 182.5625 143.421875 185.855469 140.105469 189.992188 140.105469 L 244.246094 140.105469 C 248.363281 140.105469 251.679688 143.398438 251.679688 147.539062 Z M 251.679688 159.855469 " fill-opacity="1" fill-rule="evenodd"/><path fill="#000000" d="M 219.613281 164.789062 L 254.121094 164.789062 C 258.234375 164.789062 261.550781 168.082031 261.550781 172.222656 L 261.550781 241.285156 C 261.550781 245.398438 258.261719 248.714844 254.121094 248.714844 L 219.613281 248.714844 C 215.5 248.714844 212.183594 245.425781 212.183594 241.285156 L 212.183594 172.222656 C 212.183594 168.109375 215.476562 164.789062 219.613281 164.789062 Z M 217.121094 228.96875 L 256.617188 228.96875 L 256.617188 174.664062 L 217.121094 174.664062 Z M 236.867188 243.78125 C 239.59375 243.78125 241.804688 241.570312 241.804688 238.84375 C 241.804688 236.117188 239.59375 233.90625 236.867188 233.90625 C 234.144531 233.90625 231.929688 236.117188 231.929688 238.84375 C 231.929688 241.570312 234.144531 243.78125 236.867188 243.78125 Z M 236.867188 243.78125 " fill-opacity="1" fill-rule="evenodd"/></svg>