<svg xmlns="http://www.w3.org/2000/svg" xmlns:xlink="http://www.w3.org/1999/xlink" width="500" zoomAndPan="magnify" viewBox="0 0 375 374.999991" height="500" preserveAspectRatio="xMidYMid meet" version="1.0"><defs><clipPath id="5cde5e53bf"><path d="M 112.5 112.5 L 262.5 112.5 L 262.5 262.5 L 112.5 262.5 Z M 112.5 112.5 " clip-rule="nonzero"/></clipPath></defs><path fill="#000000" d="M 217.730469 152.5 L 157.269531 152.5 C 156.300781 152.5 155.339844 152.597656 154.390625 152.785156 C 153.4375 152.976562 152.515625 153.257812 151.621094 153.628906 C 150.722656 154 149.875 154.453125 149.066406 154.992188 C 148.261719 155.53125 147.515625 156.144531 146.832031 156.832031 C 146.144531 157.515625 145.53125 158.261719 144.992188 159.066406 C 144.453125 159.875 144 160.722656 143.628906 161.621094 C 143.257812 162.515625 142.976562 163.4375 142.785156 164.390625 C 142.597656 165.339844 142.5 166.300781 142.5 167.269531 L 142.5 207.730469 C 142.5 208.699219 142.597656 209.660156 142.785156 210.609375 C 142.976562 211.5625 143.257812 212.484375 143.628906 213.378906 C 144 214.277344 144.453125 215.125 144.992188 215.933594 C 145.53125 216.738281 146.144531 217.484375 146.832031 218.167969 C 147.515625 218.855469 148.261719 219.46875 149.066406 220.007812 C 149.875 220.546875 150.722656 221 151.621094 221.371094 C 152.515625 221.742188 153.4375 222.023438 154.390625 222.214844 C 155.339844 222.402344 156.300781 222.5 157.269531 222.5 L 217.730469 222.5 C 218.699219 222.5 219.660156 222.402344 220.609375 222.214844 C 221.5625 222.023438 222.484375 221.742188 223.378906 221.371094 C 224.277344 221 225.125 220.546875 225.933594 220.007812 C 226.738281 219.46875 227.484375 218.855469 228.167969 218.167969 C 228.855469 217.484375 229.46875 216.738281 230.007812 215.933594 C 230.546875 215.125 231 214.277344 231.371094 213.378906 C 231.742188 212.484375 232.023438 211.5625 232.214844 210.609375 C 232.402344 209.660156 232.5 208.699219 232.5 207.730469 L 232.5 167.269531 C 232.5 166.300781 232.402344 165.339844 232.214844 164.390625 C 232.023438 163.4375 231.742188 162.515625 231.371094 161.621094 C 231 160.722656 230.546875 159.875 230.007812 159.066406 C 229.46875 158.261719 228.855469 157.515625 228.167969 156.832031 C 227.484375 156.144531 226.738281 155.53125 225.933594 154.992188 C 225.125 154.453125 224.277344 154 223.378906 153.628906 C 222.484375 153.257812 221.5625 152.976562 220.609375 152.785156 C 219.660156 152.597656 218.699219 152.5 217.730469 152.5 Z M 157.269531 162.5 L 217.730469 162.5 C 218.042969 162.5 218.351562 162.53125 218.660156 162.59375 C 218.96875 162.652344 219.265625 162.746094 219.554688 162.863281 C 219.84375 162.984375 220.117188 163.132812 220.378906 163.304688 C 220.640625 163.480469 220.878906 163.675781 221.101562 163.898438 C 221.324219 164.121094 221.519531 164.359375 221.695312 164.621094 C 221.867188 164.882812 222.015625 165.15625 222.136719 165.445312 C 222.253906 165.734375 222.347656 166.03125 222.40625 166.339844 C 222.46875 166.648438 222.5 166.957031 222.5 167.269531 L 222.5 169.035156 L 187.5 182.160156 L 152.5 169.035156 L 152.5 167.269531 C 152.5 166.957031 152.53125 166.648438 152.59375 166.339844 C 152.652344 166.03125 152.746094 165.734375 152.863281 165.445312 C 152.984375 165.15625 153.132812 164.882812 153.304688 164.621094 C 153.480469 164.359375 153.675781 164.121094 153.898438 163.898438 C 154.121094 163.675781 154.359375 163.480469 154.621094 163.304688 C 154.882812 163.132812 155.15625 162.984375 155.445312 162.863281 C 155.734375 162.746094 156.03125 162.652344 156.339844 162.59375 C 156.648438 162.53125 156.957031 162.5 157.269531 162.5 Z M 217.730469 212.5 L 157.269531 212.5 C 156.957031 212.5 156.648438 212.46875 156.339844 212.40625 C 156.03125 212.347656 155.734375 212.253906 155.445312 212.136719 C 155.15625 212.015625 154.882812 211.867188 154.621094 211.695312 C 154.359375 211.519531 154.121094 211.324219 153.898438 211.101562 C 153.675781 210.878906 153.480469 210.640625 153.304688 210.378906 C 153.132812 210.117188 152.984375 209.84375 152.863281 209.554688 C 152.746094 209.265625 152.652344 208.96875 152.59375 208.660156 C 152.53125 208.351562 152.5 208.042969 152.5 207.730469 L 152.5 179.730469 L 185.746094 192.199219 C 186.910156 192.632812 188.078125 192.632812 189.246094 192.199219 L 222.5 179.714844 L 222.5 207.714844 C 222.5 208.027344 222.46875 208.339844 222.410156 208.648438 C 222.347656 208.957031 222.257812 209.253906 222.140625 209.542969 C 222.019531 209.835938 221.875 210.109375 221.699219 210.371094 C 221.527344 210.632812 221.328125 210.875 221.105469 211.097656 C 220.886719 211.316406 220.644531 211.515625 220.382812 211.691406 C 220.121094 211.867188 219.847656 212.015625 219.558594 212.132812 C 219.269531 212.253906 218.96875 212.34375 218.660156 212.40625 C 218.355469 212.46875 218.042969 212.5 217.730469 212.5 Z M 217.730469 212.5 " fill-opacity="1" fill-rule="nonzero"/><g clip-path="url(#5cde5e53bf)"><path fill="#000000" d="M 187.5 112.5 C 186.273438 112.5 185.046875 112.53125 183.820312 112.589844 C 182.59375 112.652344 181.371094 112.742188 180.148438 112.859375 C 178.925781 112.980469 177.710938 113.132812 176.496094 113.3125 C 175.28125 113.492188 174.070312 113.703125 172.867188 113.941406 C 171.664062 114.179688 170.46875 114.449219 169.277344 114.746094 C 168.085938 115.046875 166.902344 115.375 165.730469 115.730469 C 164.554688 116.085938 163.390625 116.46875 162.234375 116.882812 C 161.078125 117.296875 159.933594 117.738281 158.796875 118.210938 C 157.664062 118.679688 156.542969 119.175781 155.433594 119.699219 C 154.324219 120.226562 153.226562 120.777344 152.144531 121.355469 C 151.0625 121.933594 149.996094 122.539062 148.941406 123.171875 C 147.890625 123.800781 146.851562 124.457031 145.832031 125.140625 C 144.8125 125.820312 143.808594 126.527344 142.824219 127.257812 C 141.835938 127.992188 140.871094 128.746094 139.921875 129.523438 C 138.972656 130.304688 138.042969 131.105469 137.132812 131.929688 C 136.222656 132.753906 135.335938 133.597656 134.46875 134.46875 C 133.597656 135.335938 132.753906 136.222656 131.929688 137.132812 C 131.105469 138.042969 130.304688 138.972656 129.523438 139.921875 C 128.746094 140.871094 127.992188 141.835938 127.257812 142.824219 C 126.527344 143.808594 125.820312 144.8125 125.140625 145.832031 C 124.457031 146.851562 123.800781 147.890625 123.171875 148.941406 C 122.539062 149.996094 121.933594 151.0625 121.355469 152.144531 C 120.777344 153.226562 120.226562 154.324219 119.699219 155.433594 C 119.175781 156.542969 118.679688 157.664062 118.210938 158.796875 C 117.738281 159.933594 117.296875 161.078125 116.882812 162.234375 C 116.46875 163.390625 116.085938 164.554688 115.730469 165.730469 C 115.375 166.902344 115.046875 168.085938 114.746094 169.277344 C 114.449219 170.46875 114.179688 171.664062 113.941406 172.867188 C 113.703125 174.070312 113.492188 175.28125 113.3125 176.496094 C 113.132812 177.710938 112.980469 178.925781 112.859375 180.148438 C 112.742188 181.371094 112.652344 182.59375 112.589844 183.820312 C 112.53125 185.046875 112.5 186.273438 112.5 187.5 C 112.5 188.726562 112.53125 189.953125 112.589844 191.179688 C 112.652344 192.40625 112.742188 193.628906 112.859375 194.851562 C 112.980469 196.074219 113.132812 197.289062 113.3125 198.503906 C 113.492188 199.71875 113.703125 200.929688 113.941406 202.132812 C 114.179688 203.335938 114.449219 204.53125 114.746094 205.722656 C 115.046875 206.914062 115.375 208.097656 115.730469 209.269531 C 116.085938 210.445312 116.46875 211.609375 116.882812 212.765625 C 117.296875 213.921875 117.738281 215.066406 118.210938 216.203125 C 118.679688 217.335938 119.175781 218.457031 119.699219 219.566406 C 120.226562 220.675781 120.777344 221.773438 121.355469 222.855469 C 121.933594 223.9375 122.539062 225.003906 123.171875 226.058594 C 123.800781 227.109375 124.457031 228.148438 125.140625 229.167969 C 125.820312 230.1875 126.527344 231.191406 127.257812 232.175781 C 127.992188 233.164062 128.746094 234.128906 129.523438 235.078125 C 130.304688 236.027344 131.105469 236.957031 131.929688 237.867188 C 132.753906 238.777344 133.597656 239.664062 134.46875 240.53125 C 135.335938 241.402344 136.222656 242.246094 137.132812 243.070312 C 138.042969 243.894531 138.972656 244.695312 139.921875 245.476562 C 140.871094 246.253906 141.835938 247.007812 142.824219 247.742188 C 143.808594 248.472656 144.8125 249.179688 145.832031 249.859375 C 146.851562 250.542969 147.890625 251.199219 148.941406 251.828125 C 149.996094 252.460938 151.0625 253.066406 152.144531 253.644531 C 153.226562 254.222656 154.324219 254.773438 155.433594 255.300781 C 156.542969 255.824219 157.664062 256.320312 158.796875 256.789062 C 159.933594 257.261719 161.078125 257.703125 162.234375 258.117188 C 163.390625 258.527344 164.554688 258.914062 165.730469 259.269531 C 166.902344 259.625 168.085938 259.953125 169.277344 260.253906 C 170.46875 260.550781 171.664062 260.820312 172.867188 261.058594 C 174.070312 261.296875 175.28125 261.507812 176.496094 261.6875 C 177.710938 261.867188 178.925781 262.019531 180.148438 262.140625 C 181.371094 262.257812 182.59375 262.347656 183.820312 262.410156 C 185.046875 262.46875 186.273438 262.5 187.5 262.5 C 188.726562 262.5 189.953125 262.46875 191.179688 262.410156 C 192.40625 262.347656 193.628906 262.257812 194.851562 262.140625 C 196.074219 262.019531 197.289062 261.867188 198.503906 261.6875 C 199.71875 261.507812 200.929688 261.296875 202.132812 261.058594 C 203.335938 260.820312 204.53125 260.550781 205.722656 260.253906 C 206.914062 259.953125 208.097656 259.625 209.269531 259.269531 C 210.445312 258.914062 211.609375 258.527344 212.765625 258.117188 C 213.921875 257.703125 215.066406 257.261719 216.203125 256.789062 C 217.335938 256.320312 218.457031 255.824219 219.566406 255.300781 C 220.675781 254.773438 221.773438 254.222656 222.855469 253.644531 C 223.9375 253.066406 225.003906 252.460938 226.058594 251.828125 C 227.109375 251.199219 228.148438 250.542969 229.167969 249.859375 C 230.1875 249.179688 231.191406 248.472656 232.175781 247.742188 C 233.164062 247.007812 234.128906 246.253906 235.078125 245.476562 C 236.027344 244.695312 236.957031 243.894531 237.867188 243.070312 C 238.777344 242.246094 239.664062 241.402344 240.53125 240.53125 C 241.402344 239.664062 242.246094 238.777344 243.070312 237.867188 C 243.894531 236.957031 244.695312 236.027344 245.476562 235.078125 C 246.253906 234.128906 247.007812 233.164062 247.742188 232.175781 C 248.472656 231.191406 249.179688 230.1875 249.859375 229.167969 C 250.542969 228.148438 251.199219 227.109375 251.828125 226.058594 C 252.460938 225.003906 253.066406 223.9375 253.644531 222.855469 C 254.222656 221.773438 254.773438 220.675781 255.300781 219.566406 C 255.824219 218.457031 256.320312 217.335938 256.789062 216.203125 C 257.261719 215.066406 257.703125 213.921875 258.117188 212.765625 C 258.527344 211.609375 258.914062 210.445312 259.269531 209.269531 C 259.625 208.097656 259.953125 206.914062 260.253906 205.722656 C 260.550781 204.53125 260.820312 203.335938 261.058594 202.132812 C 261.296875 200.929688 261.507812 199.71875 261.6875 198.503906 C 261.867188 197.289062 262.019531 196.074219 262.140625 194.851562 C 262.257812 193.628906 262.347656 192.40625 262.410156 191.179688 C 262.46875 189.953125 262.5 188.726562 262.5 187.5 C 262.5 186.273438 262.46875 185.046875 262.40625 183.820312 C 262.34375 182.59375 262.253906 181.371094 262.132812 180.152344 C 262.007812 178.929688 261.859375 177.714844 261.675781 176.5 C 261.496094 175.285156 261.285156 174.078125 261.042969 172.875 C 260.804688 171.671875 260.535156 170.472656 260.234375 169.285156 C 259.9375 168.09375 259.609375 166.910156 259.25 165.738281 C 258.894531 164.5625 258.507812 163.398438 258.09375 162.246094 C 257.679688 161.089844 257.238281 159.945312 256.769531 158.8125 C 256.296875 157.679688 255.800781 156.558594 255.273438 155.449219 C 254.75 154.339844 254.199219 153.242188 253.617188 152.160156 C 253.039062 151.082031 252.433594 150.011719 251.804688 148.960938 C 251.171875 147.910156 250.515625 146.871094 249.835938 145.851562 C 249.152344 144.832031 248.445312 143.828125 247.714844 142.84375 C 246.984375 141.859375 246.226562 140.890625 245.449219 139.941406 C 244.671875 138.996094 243.871094 138.066406 243.046875 137.15625 C 242.222656 136.246094 241.375 135.359375 240.507812 134.492188 C 239.640625 133.625 238.753906 132.777344 237.84375 131.953125 C 236.933594 131.128906 236.003906 130.328125 235.058594 129.550781 C 234.109375 128.773438 233.140625 128.015625 232.15625 127.285156 C 231.171875 126.554688 230.167969 125.847656 229.148438 125.164062 C 228.128906 124.484375 227.089844 123.828125 226.039062 123.195312 C 224.988281 122.566406 223.917969 121.960938 222.839844 121.382812 C 221.757812 120.800781 220.660156 120.25 219.550781 119.726562 C 218.441406 119.199219 217.320312 118.703125 216.1875 118.230469 C 215.054688 117.761719 213.910156 117.320312 212.753906 116.90625 C 211.601562 116.492188 210.4375 116.105469 209.261719 115.75 C 208.089844 115.390625 206.90625 115.0625 205.714844 114.765625 C 204.527344 114.464844 203.328125 114.195312 202.125 113.957031 C 200.921875 113.714844 199.714844 113.503906 198.5 113.324219 C 197.285156 113.140625 196.070312 112.992188 194.847656 112.867188 C 193.628906 112.746094 192.40625 112.65625 191.179688 112.59375 C 189.953125 112.53125 188.726562 112.5 187.5 112.5 Z M 187.5 252.5 C 186.4375 252.5 185.375 252.472656 184.3125 252.421875 C 183.25 252.371094 182.1875 252.292969 181.128906 252.1875 C 180.070312 252.082031 179.015625 251.953125 177.960938 251.796875 C 176.910156 251.640625 175.863281 251.457031 174.820312 251.25 C 173.777344 251.042969 172.738281 250.808594 171.707031 250.550781 C 170.675781 250.292969 169.648438 250.011719 168.632812 249.699219 C 167.613281 249.390625 166.605469 249.058594 165.601562 248.699219 C 164.601562 248.34375 163.609375 247.960938 162.625 247.550781 C 161.644531 247.144531 160.671875 246.714844 159.707031 246.257812 C 158.746094 245.804688 157.796875 245.328125 156.859375 244.824219 C 155.921875 244.324219 154.996094 243.800781 154.082031 243.253906 C 153.171875 242.707031 152.273438 242.136719 151.386719 241.546875 C 150.503906 240.953125 149.632812 240.34375 148.78125 239.707031 C 147.925781 239.074219 147.085938 238.421875 146.265625 237.746094 C 145.441406 237.070312 144.636719 236.375 143.847656 235.660156 C 143.058594 234.949219 142.289062 234.214844 141.539062 233.460938 C 140.785156 232.710938 140.050781 231.941406 139.339844 231.152344 C 138.625 230.363281 137.929688 229.558594 137.253906 228.734375 C 136.578125 227.914062 135.925781 227.074219 135.292969 226.21875 C 134.65625 225.367188 134.046875 224.496094 133.453125 223.613281 C 132.863281 222.726562 132.292969 221.828125 131.746094 220.917969 C 131.199219 220.003906 130.675781 219.078125 130.175781 218.140625 C 129.671875 217.203125 129.195312 216.253906 128.742188 215.292969 C 128.285156 214.328125 127.855469 213.355469 127.449219 212.375 C 127.039062 211.390625 126.65625 210.398438 126.300781 209.398438 C 125.941406 208.394531 125.609375 207.386719 125.300781 206.367188 C 124.988281 205.351562 124.707031 204.324219 124.449219 203.292969 C 124.191406 202.261719 123.957031 201.222656 123.75 200.179688 C 123.542969 199.136719 123.359375 198.089844 123.203125 197.039062 C 123.046875 195.984375 122.917969 194.929688 122.8125 193.871094 C 122.707031 192.8125 122.628906 191.75 122.578125 190.6875 C 122.527344 189.625 122.5 188.5625 122.5 187.5 C 122.5 186.4375 122.527344 185.375 122.578125 184.3125 C 122.628906 183.25 122.707031 182.1875 122.8125 181.128906 C 122.917969 180.070312 123.046875 179.015625 123.203125 177.960938 C 123.359375 176.910156 123.542969 175.863281 123.75 174.820312 C 123.957031 173.777344 124.191406 172.738281 124.449219 171.707031 C 124.707031 170.675781 124.988281 169.648438 125.300781 168.632812 C 125.609375 167.613281 125.941406 166.605469 126.300781 165.601562 C 126.65625 164.601562 127.039062 163.609375 127.449219 162.625 C 127.855469 161.644531 128.285156 160.671875 128.742188 159.707031 C 129.195312 158.746094 129.671875 157.796875 130.175781 156.859375 C 130.675781 155.921875 131.199219 154.996094 131.746094 154.082031 C 132.292969 153.171875 132.863281 152.273438 133.453125 151.386719 C 134.046875 150.503906 134.65625 149.632812 135.292969 148.78125 C 135.925781 147.925781 136.578125 147.085938 137.253906 146.265625 C 137.929688 145.441406 138.625 144.636719 139.339844 143.847656 C 140.050781 143.058594 140.785156 142.289062 141.539062 141.539062 C 142.289062 140.785156 143.058594 140.050781 143.847656 139.339844 C 144.636719 138.625 145.441406 137.929688 146.265625 137.253906 C 147.085938 136.578125 147.925781 135.925781 148.78125 135.292969 C 149.632812 134.65625 150.503906 134.046875 151.386719 133.453125 C 152.273438 132.863281 153.171875 132.292969 154.082031 131.746094 C 154.996094 131.199219 155.921875 130.675781 156.859375 130.175781 C 157.796875 129.671875 158.746094 129.195312 159.707031 128.742188 C 160.671875 128.285156 161.644531 127.855469 162.625 127.449219 C 163.609375 127.039062 164.601562 126.65625 165.601562 126.300781 C 166.605469 125.941406 167.613281 125.609375 168.632812 125.300781 C 169.648438 124.988281 170.675781 124.707031 171.707031 124.449219 C 172.738281 124.191406 173.777344 123.957031 174.820312 123.75 C 175.863281 123.542969 176.910156 123.359375 177.960938 123.203125 C 179.015625 123.046875 180.070312 122.917969 181.128906 122.8125 C 182.1875 122.707031 183.25 122.628906 184.3125 122.578125 C 185.375 122.527344 186.4375 122.5 187.5 122.5 C 188.5625 122.5 189.625 122.527344 190.6875 122.578125 C 191.75 122.628906 192.8125 122.707031 193.871094 122.8125 C 194.929688 122.917969 195.984375 123.046875 197.039062 123.203125 C 198.089844 123.359375 199.136719 123.542969 200.179688 123.75 C 201.222656 123.957031 202.261719 124.191406 203.292969 124.449219 C 204.324219 124.707031 205.351562 124.988281 206.367188 125.300781 C 207.386719 125.609375 208.394531 125.941406 209.398438 126.300781 C 210.398438 126.65625 211.390625 127.039062 212.375 127.449219 C 213.355469 127.855469 214.328125 128.285156 215.292969 128.742188 C 216.253906 129.195312 217.203125 129.671875 218.140625 130.175781 C 219.078125 130.675781 220.003906 131.199219 220.917969 131.746094 C 221.828125 132.292969 222.726562 132.863281 223.613281 133.453125 C 224.496094 134.046875 225.367188 134.65625 226.21875 135.292969 C 227.074219 135.925781 227.914062 136.578125 228.734375 137.253906 C 229.558594 137.929688 230.363281 138.625 231.152344 139.339844 C 231.941406 140.050781 232.710938 140.785156 233.460938 141.539062 C 234.214844 142.289062 234.949219 143.058594 235.660156 143.847656 C 236.375 144.636719 237.070312 145.441406 237.746094 146.265625 C 238.421875 147.085938 239.074219 147.925781 239.707031 148.78125 C 240.34375 149.632812 240.953125 150.503906 241.546875 151.386719 C 242.136719 152.273438 242.707031 153.171875 243.253906 154.082031 C 243.800781 154.996094 244.324219 155.921875 244.824219 156.859375 C 245.328125 157.796875 245.804688 158.746094 246.257812 159.707031 C 246.714844 160.671875 247.144531 161.644531 247.550781 162.625 C 247.960938 163.609375 248.34375 164.601562 248.699219 165.601562 C 249.058594 166.605469 249.390625 167.613281 249.699219 168.632812 C 250.011719 169.648438 250.292969 170.675781 250.550781 171.707031 C 250.808594 172.738281 251.042969 173.777344 251.25 174.820312 C 251.457031 175.863281 251.640625 176.910156 251.796875 177.960938 C 251.953125 179.015625 252.082031 180.070312 252.1875 181.128906 C 252.292969 182.1875 252.371094 183.25 252.421875 184.3125 C 252.472656 185.375 252.5 186.4375 252.5 187.5 C 252.5 188.5625 252.472656 189.625 252.417969 190.6875 C 252.363281 191.75 252.285156 192.808594 252.179688 193.867188 C 252.074219 194.925781 251.945312 195.980469 251.785156 197.035156 C 251.628906 198.085938 251.445312 199.132812 251.238281 200.175781 C 251.03125 201.21875 250.796875 202.253906 250.539062 203.285156 C 250.277344 204.316406 249.992188 205.34375 249.683594 206.359375 C 249.375 207.378906 249.039062 208.386719 248.683594 209.386719 C 248.324219 210.390625 247.941406 211.378906 247.53125 212.363281 C 247.125 213.34375 246.691406 214.316406 246.238281 215.277344 C 245.78125 216.238281 245.304688 217.1875 244.804688 218.125 C 244.300781 219.0625 243.777344 219.988281 243.230469 220.898438 C 242.683594 221.8125 242.113281 222.710938 241.523438 223.59375 C 240.929688 224.476562 240.320312 225.347656 239.683594 226.203125 C 239.050781 227.054688 238.398438 227.894531 237.722656 228.714844 C 237.046875 229.539062 236.351562 230.34375 235.640625 231.128906 C 234.925781 231.917969 234.191406 232.6875 233.441406 233.441406 C 232.6875 234.191406 231.917969 234.925781 231.128906 235.640625 C 230.34375 236.351562 229.539062 237.046875 228.714844 237.722656 C 227.894531 238.398438 227.054688 239.050781 226.203125 239.683594 C 225.347656 240.320312 224.476562 240.929688 223.59375 241.523438 C 222.710938 242.113281 221.8125 242.683594 220.898438 243.230469 C 219.988281 243.777344 219.0625 244.300781 218.125 244.804688 C 217.1875 245.304688 216.238281 245.78125 215.277344 246.238281 C 214.316406 246.691406 213.34375 247.125 212.363281 247.53125 C 211.378906 247.941406 210.390625 248.324219 209.386719 248.683594 C 208.386719 249.039062 207.378906 249.375 206.359375 249.683594 C 205.34375 249.992188 204.316406 250.277344 203.285156 250.539062 C 202.253906 250.796875 201.21875 251.03125 200.175781 251.238281 C 199.132812 251.445312 198.085938 251.628906 197.035156 251.785156 C 195.980469 251.945312 194.925781 252.074219 193.867188 252.179688 C 192.8125 252.285156 191.75 252.363281 190.6875 252.417969 C 189.625 252.472656 188.5625 252.5 187.5 252.5 Z M 187.5 252.5 " fill-opacity="1" fill-rule="nonzero"/></g></svg>