<svg xmlns="http://www.w3.org/2000/svg" xmlns:xlink="http://www.w3.org/1999/xlink" width="500" zoomAndPan="magnify" viewBox="0 0 375 374.999991" height="500" preserveAspectRatio="xMidYMid meet" version="1.0"><defs><clipPath id="054d52476b"><path d="M 112.6875 112.5 L 262.6875 112.5 L 262.6875 262.5 L 112.6875 262.5 Z M 112.6875 112.5 " clip-rule="nonzero"/></clipPath></defs><g clip-path="url(#054d52476b)"><path fill="#000000" d="M 216.585938 218.222656 C 218.8125 221.015625 216.136719 224.109375 214.863281 225.28125 C 213.210938 226.851562 211.085938 228.125 208.488281 229.097656 C 207.164062 229.59375 206.113281 229.894531 205.113281 230.019531 L 204.511719 230.09375 C 201.960938 230.367188 199.085938 230.117188 195.710938 229.371094 C 189.039062 227.949219 182.835938 223.910156 176.738281 217.050781 C 175.8125 216.152344 168.863281 209.195312 164.414062 199.394531 C 159.9375 189.445312 159.386719 179.71875 159.335938 178.648438 C 158.238281 169.296875 159.363281 161.988281 162.664062 156.078125 C 164.488281 152.835938 166.386719 150.367188 168.4375 148.621094 C 169.164062 147.972656 170.113281 147.375 171.386719 146.703125 C 173.761719 145.503906 176.085938 144.757812 178.261719 144.53125 C 179.636719 144.40625 184.261719 144.285156 184.863281 147.898438 L 185.460938 154.132812 C 185.738281 156.902344 186.335938 163.910156 186.335938 163.910156 C 186.789062 168.347656 186.261719 170.691406 181.9375 171.289062 C 181.613281 171.316406 181.289062 171.265625 180.886719 171.265625 C 179.914062 171.164062 179.039062 171.117188 178.261719 171.117188 L 175.113281 171.140625 L 175.1875 174.28125 C 175.261719 177.800781 176.511719 186.851562 179.1875 192.8125 C 181.664062 198.296875 187.386719 205.304688 190.414062 208.074219 L 192.738281 210.191406 L 194.835938 207.824219 C 195.3125 207.277344 195.835938 206.601562 196.136719 206.203125 C 196.664062 205.503906 196.914062 205.15625 197.136719 204.980469 C 198.238281 204.035156 199.261719 203.511719 200.289062 203.410156 C 202.289062 203.210938 203.789062 204.65625 205.539062 206.578125 Z M 262.6875 187.5 C 262.6875 228.871094 229.113281 262.4375 187.6875 262.4375 C 146.261719 262.4375 112.6875 228.871094 112.6875 187.5 C 112.6875 146.128906 146.261719 112.5625 187.6875 112.5625 C 229.113281 112.5625 262.6875 146.128906 262.6875 187.5 Z M 251.289062 187.5 C 251.289062 152.414062 222.8125 123.960938 187.6875 123.960938 C 152.5625 123.960938 124.085938 152.414062 124.085938 187.5 C 124.085938 222.585938 152.5625 251.039062 187.6875 251.039062 C 222.8125 251.039062 251.289062 222.585938 251.289062 187.5 Z M 251.289062 187.5 " fill-opacity="1" fill-rule="nonzero"/></g></svg>