<svg xmlns="http://www.w3.org/2000/svg" xmlns:xlink="http://www.w3.org/1999/xlink" width="500" zoomAndPan="magnify" viewBox="0 0 375 374.999991" height="500" preserveAspectRatio="xMidYMid meet" version="1.0"><defs><clipPath id="eef3f3fb2f"><path d="M 168 113 L 208.6875 113 L 208.6875 262 L 168 262 Z M 168 113 " clip-rule="nonzero"/></clipPath></defs><g clip-path="url(#eef3f3fb2f)"><path fill="#000000" d="M 207.453125 114.878906 C 207.347656 114.800781 207.230469 114.789062 207.109375 114.839844 C 206.765625 114.539062 207.03125 113.851562 206.398438 113.734375 C 205.394531 112.722656 204.367188 113.109375 203.351562 113.707031 C 200.507812 115.394531 197.996094 117.511719 195.613281 119.785156 C 187.089844 127.925781 180.65625 137.472656 175.855469 148.257812 C 167.460938 167.085938 166.300781 186.515625 170.398438 206.4375 C 172.300781 215.675781 175.777344 224.40625 179.65625 232.972656 C 181.941406 238.011719 184.519531 242.894531 186.976562 247.839844 C 187.144531 247.980469 187.3125 248.113281 187.476562 248.253906 C 187.488281 248.496094 187.570312 248.769531 187.484375 248.96875 C 187.484375 248.96875 187.484375 248.96875 187.476562 248.972656 C 187.40625 249.128906 187.183594 249.023438 187.09375 248.847656 C 185.152344 247.886719 183.472656 246.546875 181.867188 245.121094 C 180.769531 244.140625 179.628906 243.277344 178.242188 242.765625 C 175.894531 240.644531 173.375 240.570312 171.1875 242.460938 C 173.460938 248.351562 178.128906 251.945312 183.179688 255.210938 C 185.054688 256.425781 186.84375 257.765625 188.65625 259.078125 C 192.988281 262.21875 192.539062 261.519531 196.53125 259.78125 C 197.425781 259.394531 198.214844 258.804688 198.933594 258.136719 C 199.203125 257.894531 199.425781 257.644531 199.425781 257.261719 C 200.417969 256.761719 200.429688 255.828125 200.394531 254.917969 C 200.296875 252.210938 200.164062 249.511719 200.039062 246.808594 C 200.351562 246.242188 200.257812 245.652344 200.132812 245.0625 C 200.46875 244.507812 200.363281 243.914062 200.285156 243.324219 C 200.585938 242.96875 200.472656 242.527344 200.527344 242.121094 C 201.300781 236.628906 202.679688 231.300781 204.960938 226.226562 C 205.132812 225.84375 205.273438 225.449219 205.425781 225.058594 C 205.617188 224.597656 205.832031 224.078125 205.398438 223.710938 C 205.070312 223.433594 204.476562 223.511719 204.207031 223.753906 C 202.996094 224.832031 201.324219 224.992188 200.0625 225.933594 C 199.5 226.347656 199.15625 226.960938 198.820312 227.585938 C 196.179688 232.414062 194.46875 237.574219 193.28125 242.921875 C 193.175781 243.398438 193.144531 243.902344 192.941406 244.34375 C 192.710938 244.851562 192.277344 244.710938 191.894531 244.453125 C 191.960938 243.898438 191.738281 243.503906 191.253906 243.25 C 191.214844 242.730469 191.136719 242.230469 190.597656 241.972656 C 190.660156 241.84375 190.621094 241.761719 190.488281 241.722656 C 190.464844 241.226562 190.367188 240.769531 189.882812 240.503906 C 189.792969 240.171875 189.75 239.820312 189.605469 239.511719 C 188.039062 236.09375 186.417969 232.707031 184.890625 229.273438 C 183.5 226.160156 182.210938 223.003906 180.886719 219.867188 C 180.636719 218.996094 180.417969 218.117188 180.136719 217.261719 C 177.429688 208.921875 175.769531 200.378906 175.394531 191.609375 C 175.257812 188.476562 175.21875 185.34375 175.144531 182.210938 C 175.476562 181.617188 175.34375 181.007812 175.21875 180.390625 C 175.554688 179.832031 175.4375 179.246094 175.328125 178.660156 C 175.683594 178.148438 175.53125 177.59375 175.476562 177.042969 C 175.742188 176.726562 175.726562 176.375 175.597656 176.015625 C 175.6875 175.894531 175.691406 175.769531 175.609375 175.644531 C 175.898438 175.289062 175.796875 174.847656 175.863281 174.449219 C 176.203125 172.472656 176.1875 170.445312 176.769531 168.507812 C 176.609375 168.335938 176.527344 167.761719 176.230469 168.460938 C 176.03125 168.929688 175.894531 168.957031 175.777344 168.828125 C 175.675781 168.71875 175.59375 168.488281 175.507812 168.324219 C 176.777344 162.113281 178.773438 156.132812 181.167969 150.277344 C 181.441406 149.757812 181.714844 149.230469 181.984375 148.707031 C 183.613281 145.585938 185.238281 142.460938 186.859375 139.339844 C 186.996094 139.277344 187.082031 139.1875 187.132812 139.078125 C 187.167969 139 187.183594 138.914062 187.183594 138.820312 C 187.398438 138.722656 187.5 138.550781 187.496094 138.316406 C 187.714844 138.222656 187.816406 138.050781 187.804688 137.8125 C 188.03125 137.722656 188.132812 137.550781 188.121094 137.304688 C 188.351562 137.214844 188.460938 137.050781 188.445312 136.804688 C 188.675781 136.722656 188.78125 136.554688 188.765625 136.3125 L 188.773438 136.304688 C 189 136.226562 189.109375 136.0625 189.09375 135.824219 L 189.097656 135.8125 C 189.214844 135.660156 189.328125 135.5 189.425781 135.332031 L 189.4375 135.316406 C 189.664062 135.238281 189.777344 135.082031 189.765625 134.839844 L 189.777344 134.824219 C 190.003906 134.746094 190.117188 134.589844 190.105469 134.34375 L 190.117188 134.328125 C 190.117188 134.328125 190.121094 134.324219 190.121094 134.324219 C 190.121094 134.324219 190.117188 134.328125 190.117188 134.328125 C 190.347656 134.257812 190.460938 134.09375 190.449219 133.851562 L 190.453125 133.839844 C 190.6875 133.765625 190.800781 133.605469 190.789062 133.363281 L 190.792969 133.355469 C 191.027344 133.277344 191.144531 133.117188 191.136719 132.875 C 192.289062 131.453125 193.4375 130.035156 194.585938 128.613281 C 194.953125 127.6875 195.703125 127.046875 196.339844 126.332031 C 196.453125 126.359375 196.542969 126.410156 196.621094 126.46875 C 196.742188 126.5625 196.824219 126.6875 196.875 126.851562 C 197.414062 126.363281 197.992188 125.914062 198.273438 125.210938 C 198.339844 124.988281 198.433594 124.78125 198.613281 124.621094 C 198.5 124.816406 198.386719 125.007812 198.273438 125.210938 C 198.480469 125.085938 198.65625 124.949219 198.617188 124.6875 C 198.980469 124.621094 199.195312 124.394531 199.328125 124.058594 C 199.5625 124.019531 199.707031 123.898438 199.71875 123.648438 C 199.941406 123.546875 200.113281 123.414062 200.140625 123.15625 C 200.257812 123.121094 200.347656 123.058594 200.394531 122.9375 C 201.007812 122.554688 201.507812 122.066406 201.890625 121.453125 C 202.304688 121.160156 202.734375 120.878906 202.960938 120.394531 C 203.292969 120.304688 203.472656 120.03125 203.667969 119.785156 C 205.3125 118.628906 206.734375 117.179688 208.683594 116.296875 C 208.105469 115.8125 208.203125 115 207.453125 114.878906 Z M 190.078125 241.792969 C 190.078125 241.789062 190.078125 241.789062 190.078125 241.78125 C 190.070312 241.78125 190.070312 241.789062 190.070312 241.789062 C 190.070312 241.78125 190.078125 241.777344 190.078125 241.777344 C 190.078125 241.777344 190.078125 241.78125 190.078125 241.78125 C 190.082031 241.78125 190.089844 241.78125 190.09375 241.777344 C 190.089844 241.789062 190.082031 241.789062 190.078125 241.792969 Z M 189.4375 133.273438 C 189.40625 133.308594 189.371094 133.339844 189.339844 133.375 C 189.34375 133.363281 189.347656 133.351562 189.355469 133.339844 C 189.378906 133.304688 189.398438 133.273438 189.425781 133.238281 C 189.425781 133.246094 189.433594 133.257812 189.4375 133.273438 Z M 186.859375 139.304688 C 186.855469 139.304688 186.855469 139.300781 186.851562 139.300781 C 186.839844 139.289062 186.824219 139.28125 186.8125 139.269531 L 186.773438 139.234375 L 186.855469 139.300781 C 186.859375 139.300781 186.859375 139.292969 186.867188 139.292969 C 186.859375 139.292969 186.859375 139.300781 186.859375 139.304688 Z M 189.359375 133.066406 C 189.382812 133.125 189.40625 133.179688 189.421875 133.230469 C 189.398438 133.261719 189.378906 133.296875 189.355469 133.328125 C 189.394531 133.25 189.398438 133.164062 189.359375 133.066406 Z M 189.195312 133.546875 C 189.167969 133.585938 189.136719 133.625 189.109375 133.65625 C 189.105469 133.65625 189.105469 133.660156 189.097656 133.660156 C 189.132812 133.625 189.167969 133.585938 189.195312 133.546875 Z M 203.804688 115.941406 C 203.804688 115.933594 203.8125 115.929688 203.8125 115.921875 C 203.8125 115.921875 203.816406 115.917969 203.816406 115.917969 C 203.824219 115.917969 203.828125 115.914062 203.832031 115.914062 C 203.828125 115.921875 203.816406 115.929688 203.804688 115.941406 Z M 203.078125 116.457031 C 203.066406 116.457031 203.054688 116.457031 203.050781 116.46875 C 203.0625 116.46875 203.074219 116.457031 203.078125 116.457031 Z M 198.652344 124.257812 C 198.636719 124.222656 198.613281 124.183594 198.578125 124.144531 C 198.609375 124.136719 198.636719 124.132812 198.664062 124.125 C 198.65625 124.171875 198.65625 124.214844 198.652344 124.257812 Z M 199.878906 123.265625 C 199.921875 123.203125 199.992188 123.160156 200.074219 123.132812 C 200.074219 123.132812 200.074219 123.132812 200.074219 123.136719 C 199.996094 123.171875 199.929688 123.210938 199.878906 123.265625 Z M 199.878906 123.265625 " fill-opacity="1" fill-rule="nonzero"/></g><path fill="#000000" d="M 189.4375 135.300781 C 189.328125 135.460938 189.222656 135.621094 189.109375 135.777344 C 189.34375 135.699219 189.449219 135.539062 189.4375 135.300781 Z M 189.4375 135.300781 " fill-opacity="1" fill-rule="nonzero"/></svg>