<svg xmlns="http://www.w3.org/2000/svg" xmlns:xlink="http://www.w3.org/1999/xlink" width="500" zoomAndPan="magnify" viewBox="0 0 375 374.999991" height="500" preserveAspectRatio="xMidYMid meet" version="1.0"><defs><clipPath id="f5337b3025"><path d="M 166 121.03125 L 209 121.03125 L 209 152 L 166 152 Z M 166 121.03125 " clip-rule="nonzero"/></clipPath><clipPath id="4f8e0a0045"><path d="M 112.519531 237.40625 L 262.480469 237.40625 L 262.480469 253.78125 L 112.519531 253.78125 Z M 112.519531 237.40625 " clip-rule="nonzero"/></clipPath></defs><path fill="#000000" d="M 148.539062 237.390625 L 226.460938 237.390625 L 229.902344 191.402344 C 229.929688 191.019531 229.75 190.761719 229.636719 190.640625 C 229.527344 190.523438 229.28125 190.320312 228.898438 190.320312 L 146.101562 190.320312 C 145.71875 190.320312 145.472656 190.523438 145.363281 190.640625 C 145.25 190.761719 145.070312 191.019531 145.097656 191.402344 Z M 228.371094 241.5 L 146.628906 241.5 C 145.550781 241.5 144.65625 240.671875 144.578125 239.597656 L 140.992188 191.707031 C 140.886719 190.292969 141.378906 188.886719 142.347656 187.847656 C 143.3125 186.804688 144.679688 186.210938 146.101562 186.210938 L 228.898438 186.210938 C 230.320312 186.210938 231.6875 186.804688 232.65625 187.847656 C 233.621094 188.886719 234.113281 190.292969 234.007812 191.707031 L 230.421875 239.597656 C 230.34375 240.671875 229.449219 241.5 228.371094 241.5 " fill-opacity="1" fill-rule="nonzero"/><path fill="#000000" d="M 187.5 189.734375 C 186.878906 189.734375 186.289062 189.453125 185.898438 188.96875 L 177.765625 178.902344 C 177.46875 178.535156 177.308594 178.078125 177.308594 177.609375 L 177.308594 170.402344 C 177.308594 169.265625 178.230469 168.347656 179.367188 168.347656 C 180.503906 168.347656 181.425781 169.265625 181.425781 170.402344 L 181.425781 176.882812 L 187.5 184.40625 L 193.574219 176.882812 L 193.574219 170.402344 C 193.574219 169.265625 194.496094 168.347656 195.632812 168.347656 C 196.769531 168.347656 197.691406 169.265625 197.691406 170.402344 L 197.691406 177.609375 C 197.691406 178.078125 197.53125 178.535156 197.234375 178.902344 L 189.101562 188.96875 C 188.710938 189.453125 188.121094 189.734375 187.5 189.734375 " fill-opacity="1" fill-rule="nonzero"/><g clip-path="url(#f5337b3025)"><path fill="#000000" d="M 206.65625 151.738281 C 205.519531 151.738281 204.597656 150.820312 204.597656 149.683594 L 204.597656 142.214844 C 204.597656 132.835938 196.957031 125.175781 187.5625 125.140625 C 187.542969 125.140625 187.523438 125.140625 187.503906 125.140625 C 183.007812 125.140625 178.753906 126.914062 175.515625 130.136719 C 172.21875 133.417969 170.402344 137.761719 170.402344 142.367188 L 170.402344 149.683594 C 170.402344 150.820312 169.480469 151.738281 168.34375 151.738281 C 167.207031 151.738281 166.285156 150.820312 166.285156 149.683594 L 166.285156 142.367188 C 166.285156 139.488281 166.855469 136.6875 167.984375 134.039062 C 169.078125 131.484375 170.632812 129.191406 172.609375 127.222656 C 176.625 123.226562 181.910156 121.03125 187.5 121.03125 C 187.527344 121.03125 187.550781 121.03125 187.578125 121.03125 C 193.226562 121.050781 198.535156 123.261719 202.527344 127.261719 C 206.515625 131.261719 208.714844 136.570312 208.714844 142.214844 L 208.714844 149.683594 C 208.714844 150.820312 207.792969 151.738281 206.65625 151.738281 " fill-opacity="1" fill-rule="nonzero"/></g><path fill="#000000" d="M 175.375 147.984375 L 175.375 158.761719 C 175.375 165.4375 180.8125 170.871094 187.5 170.871094 C 194.1875 170.871094 199.625 165.4375 199.625 158.761719 L 199.625 146.730469 L 195.714844 142.371094 C 189.519531 147.046875 179.683594 147.859375 175.375 147.984375 Z M 187.5 174.980469 C 178.542969 174.980469 171.257812 167.707031 171.257812 158.761719 L 171.257812 145.941406 C 171.257812 145.386719 171.484375 144.855469 171.882812 144.46875 C 172.28125 144.078125 172.820312 143.871094 173.378906 143.886719 C 173.527344 143.890625 188.242188 144.242188 194.445312 138.046875 C 194.847656 137.644531 195.394531 137.429688 195.957031 137.445312 C 196.523438 137.457031 197.058594 137.707031 197.433594 138.128906 L 203.214844 144.570312 C 203.554688 144.949219 203.742188 145.4375 203.742188 145.941406 L 203.742188 158.761719 C 203.742188 167.707031 196.457031 174.980469 187.5 174.980469 " fill-opacity="1" fill-rule="nonzero"/><path fill="#000000" d="M 171.257812 150.953125 C 169.597656 150.972656 168.25 152.332031 168.25 153.996094 C 168.25 155.664062 169.597656 157.019531 171.257812 157.042969 Z M 173.316406 161.152344 L 171.300781 161.152344 C 167.347656 161.152344 164.132812 157.941406 164.132812 153.996094 C 164.132812 150.050781 167.347656 146.839844 171.300781 146.839844 L 173.316406 146.839844 C 174.453125 146.839844 175.375 147.761719 175.375 148.894531 L 175.375 159.097656 C 175.375 160.234375 174.453125 161.152344 173.316406 161.152344 " fill-opacity="1" fill-rule="nonzero"/><path fill="#000000" d="M 203.742188 150.953125 L 203.742188 157.042969 C 205.402344 157.019531 206.75 155.664062 206.75 153.996094 C 206.75 152.332031 205.402344 150.972656 203.742188 150.953125 Z M 203.699219 161.152344 L 201.683594 161.152344 C 200.546875 161.152344 199.625 160.234375 199.625 159.097656 L 199.625 148.894531 C 199.625 147.761719 200.546875 146.839844 201.683594 146.839844 L 203.699219 146.839844 C 207.652344 146.839844 210.867188 150.050781 210.867188 153.996094 C 210.867188 157.941406 207.652344 161.152344 203.699219 161.152344 " fill-opacity="1" fill-rule="nonzero"/><path fill="#000000" d="M 154.09375 190.320312 C 153.640625 190.320312 153.183594 190.171875 152.804688 189.867188 C 151.917969 189.15625 151.777344 187.863281 152.492188 186.976562 C 154.769531 184.148438 157.8125 182.085938 161.289062 181.011719 L 178.832031 175.597656 C 179.917969 175.265625 181.070312 175.875 181.402344 176.960938 C 181.734375 178.046875 181.125 179.195312 180.035156 179.53125 L 179.96875 179.550781 L 162.507812 184.9375 C 159.816406 185.769531 157.460938 187.367188 155.699219 189.554688 C 155.292969 190.058594 154.695312 190.320312 154.09375 190.320312 " fill-opacity="1" fill-rule="nonzero"/><path fill="#000000" d="M 220.90625 190.320312 C 220.304688 190.320312 219.707031 190.058594 219.300781 189.554688 C 217.539062 187.367188 215.183594 185.769531 212.492188 184.9375 L 194.960938 179.527344 C 193.875 179.195312 193.265625 178.046875 193.597656 176.960938 C 193.933594 175.875 195.082031 175.265625 196.171875 175.597656 L 196.238281 175.621094 L 213.710938 181.011719 C 217.1875 182.085938 220.230469 184.148438 222.507812 186.976562 C 223.222656 187.863281 223.082031 189.15625 222.195312 189.867188 C 221.816406 190.171875 221.359375 190.320312 220.90625 190.320312 " fill-opacity="1" fill-rule="nonzero"/><path fill="#000000" d="M 177.371094 223.945312 C 176.933594 223.945312 176.488281 223.804688 176.117188 223.519531 L 165.683594 215.484375 C 165.179688 215.09375 164.882812 214.492188 164.882812 213.855469 C 164.882812 213.21875 165.179688 212.617188 165.683594 212.226562 L 176.117188 204.191406 C 177.015625 203.5 178.308594 203.664062 179.003906 204.5625 C 179.695312 205.464844 179.53125 206.753906 178.628906 207.445312 L 170.308594 213.855469 L 178.628906 220.261719 C 179.53125 220.957031 179.695312 222.246094 179.003906 223.148438 C 178.597656 223.671875 177.988281 223.945312 177.371094 223.945312 " fill-opacity="1" fill-rule="nonzero"/><path fill="#000000" d="M 197.628906 223.945312 C 197.011719 223.945312 196.402344 223.671875 195.996094 223.148438 C 195.304688 222.246094 195.46875 220.957031 196.371094 220.261719 L 204.691406 213.855469 L 196.371094 207.445312 C 195.46875 206.753906 195.304688 205.464844 195.996094 204.5625 C 196.691406 203.664062 197.984375 203.5 198.882812 204.191406 L 209.316406 212.226562 C 209.820312 212.617188 210.117188 213.21875 210.117188 213.855469 C 210.117188 214.492188 209.820312 215.09375 209.316406 215.484375 L 198.882812 223.519531 C 198.511719 223.804688 198.066406 223.945312 197.628906 223.945312 " fill-opacity="1" fill-rule="nonzero"/><path fill="#000000" d="M 183.703125 230.070312 C 183.527344 230.070312 183.347656 230.046875 183.167969 230 C 182.070312 229.707031 181.417969 228.578125 181.710938 227.480469 L 189.3125 199.164062 C 189.605469 198.066406 190.734375 197.417969 191.832031 197.710938 C 192.929688 198.003906 193.582031 199.132812 193.289062 200.230469 L 185.6875 228.546875 C 185.441406 229.464844 184.609375 230.070312 183.703125 230.070312 " fill-opacity="1" fill-rule="nonzero"/><g clip-path="url(#4f8e0a0045)"><path fill="#000000" d="M 116.640625 249.667969 L 258.359375 249.667969 C 258.230469 245.160156 254.519531 241.535156 249.972656 241.535156 L 125.023438 241.535156 C 120.480469 241.535156 116.769531 245.160156 116.640625 249.667969 Z M 260.421875 253.78125 L 114.578125 253.78125 C 113.441406 253.78125 112.519531 252.859375 112.519531 251.726562 L 112.519531 249.914062 C 112.519531 243.027344 118.128906 237.425781 125.023438 237.425781 L 249.972656 237.425781 C 256.871094 237.425781 262.480469 243.027344 262.480469 249.914062 L 262.480469 251.726562 C 262.480469 252.859375 261.558594 253.78125 260.421875 253.78125 " fill-opacity="1" fill-rule="nonzero"/></g></svg>