<svg xmlns="http://www.w3.org/2000/svg" xmlns:xlink="http://www.w3.org/1999/xlink" width="500" zoomAndPan="magnify" viewBox="0 0 375 374.999991" height="500" preserveAspectRatio="xMidYMid meet" version="1.0"><defs><clipPath id="56229fdb99"><path d="M 114.75 117 L 260 117 L 260 262.5 L 114.75 262.5 Z M 114.75 117 " clip-rule="nonzero"/></clipPath></defs><g clip-path="url(#56229fdb99)"><path fill="#000000" d="M 257.371094 250.644531 L 214.742188 208.015625 C 231.839844 186.132812 230.242188 154.445312 210.183594 134.382812 C 188.296875 112.5 152.964844 112.5 131.308594 134.382812 C 120.59375 144.871094 114.894531 159.003906 114.894531 173.820312 C 114.894531 188.640625 120.59375 202.773438 131.308594 213.261719 C 142.25 224.203125 156.382812 229.671875 170.746094 229.671875 C 182.828125 229.671875 194.910156 225.796875 204.9375 217.820312 L 247.570312 260.449219 C 248.9375 261.816406 250.761719 262.5 252.582031 262.5 C 254.40625 262.5 256.230469 261.816406 257.597656 260.449219 C 260.105469 257.710938 260.105469 253.382812 257.371094 250.644531 Z M 134.5 210.070312 C 124.925781 200.492188 119.453125 187.5 119.453125 173.820312 C 119.453125 160.144531 124.695312 147.152344 134.5 137.574219 C 144.527344 127.546875 157.523438 122.53125 170.746094 122.53125 C 183.964844 122.53125 196.960938 127.546875 206.992188 137.574219 C 225.910156 156.496094 226.824219 186.589844 209.953125 206.875 C 209.042969 208.015625 208.128906 209.15625 206.992188 210.070312 C 205.851562 211.207031 204.9375 212.121094 203.800781 213.03125 C 183.511719 229.902344 153.417969 228.988281 134.5 210.070312 Z M 254.179688 257.257812 C 253.265625 258.167969 251.671875 258.167969 250.761719 257.257812 L 208.359375 214.855469 C 208.816406 214.398438 209.5 213.714844 210.183594 213.261719 C 210.636719 212.804688 211.320312 212.121094 211.777344 211.4375 L 254.179688 253.835938 C 255.089844 254.75 255.089844 256.34375 254.179688 257.257812 Z M 254.179688 257.257812 " fill-opacity="1" fill-rule="nonzero"/></g><path fill="#000000" d="M 213.828125 173.820312 C 213.828125 162.195312 209.269531 151.480469 201.292969 143.273438 C 193.085938 135.070312 182.371094 130.738281 170.746094 130.738281 C 159.117188 130.738281 148.402344 135.296875 140.199219 143.273438 C 123.328125 160.144531 123.328125 187.5 140.199219 204.371094 C 148.402344 212.574219 159.117188 216.90625 170.746094 216.90625 C 182.371094 216.90625 193.085938 212.347656 201.292969 204.371094 C 209.269531 196.164062 213.828125 185.449219 213.828125 173.820312 Z M 170.746094 212.347656 C 160.484375 212.347656 150.683594 208.246094 143.390625 200.949219 C 128.34375 185.902344 128.34375 161.511719 143.390625 146.464844 C 150.683594 139.171875 160.257812 135.070312 170.746094 135.070312 C 181.003906 135.070312 190.804688 139.171875 198.101562 146.464844 C 205.394531 153.761719 209.5 163.335938 209.5 173.820312 C 209.5 184.082031 205.394531 193.882812 198.101562 201.179688 C 190.804688 208.472656 181.003906 212.347656 170.746094 212.347656 Z M 170.746094 212.347656 " fill-opacity="1" fill-rule="nonzero"/><path fill="#000000" d="M 170.746094 143.046875 C 161.398438 143.046875 152.734375 146.695312 146.125 153.304688 C 145.210938 154.21875 145.210938 155.585938 146.125 156.496094 C 147.035156 157.410156 148.402344 157.410156 149.316406 156.496094 C 155.015625 150.796875 162.539062 147.605469 170.746094 147.605469 C 178.953125 147.605469 186.472656 150.796875 192.171875 156.496094 C 192.628906 156.953125 193.3125 157.179688 193.769531 157.179688 C 194.226562 157.179688 194.910156 156.953125 195.363281 156.496094 C 196.277344 155.585938 196.277344 154.21875 195.363281 153.304688 C 188.753906 146.695312 179.863281 143.046875 170.746094 143.046875 Z M 170.746094 143.046875 " fill-opacity="1" fill-rule="nonzero"/></svg>