<svg xmlns="http://www.w3.org/2000/svg" xmlns:xlink="http://www.w3.org/1999/xlink" width="500" zoomAndPan="magnify" viewBox="0 0 375 374.999991" height="500" preserveAspectRatio="xMidYMid meet" version="1.0"><defs><clipPath id="6755a6ecb8"><path d="M 185.0625 130.875 L 213.5625 130.875 L 213.5625 280.875 L 185.0625 280.875 Z M 185.0625 130.875 " clip-rule="nonzero"/></clipPath></defs><g clip-path="url(#6755a6ecb8)"><path fill="#000000" d="M 185.078125 136.402344 C 185.078125 139.148438 187.109375 141.425781 189.773438 141.851562 L 189.773438 197.613281 L 206.804688 214.425781 L 206.804688 269.941406 C 204.261719 270.460938 202.351562 272.6875 202.351562 275.347656 C 202.351562 278.402344 204.859375 280.871094 207.949219 280.871094 C 211.039062 280.871094 213.546875 278.398438 213.546875 275.347656 C 213.546875 272.601562 211.515625 270.324219 208.851562 269.898438 L 208.851562 213.585938 L 191.820312 196.777344 L 191.820312 141.8125 C 194.363281 141.289062 196.273438 139.066406 196.273438 136.402344 C 196.273438 133.351562 193.765625 130.878906 190.675781 130.878906 C 187.585938 130.878906 185.078125 133.351562 185.078125 136.402344 Z M 185.078125 136.402344 " fill-opacity="1" fill-rule="nonzero"/></g></svg>