<svg xmlns="http://www.w3.org/2000/svg" xmlns:xlink="http://www.w3.org/1999/xlink" width="500" zoomAndPan="magnify" viewBox="0 0 375 374.999991" height="500" preserveAspectRatio="xMidYMid meet" version="1.0"><defs><clipPath id="baa1a59888"><path d="M 112.5 131 L 262.5 131 L 262.5 244 L 112.5 244 Z M 112.5 131 " clip-rule="nonzero"/></clipPath><clipPath id="58d0b1321c"><path d="M 112.5 224 L 262.5 224 L 262.5 231 L 112.5 231 Z M 112.5 224 " clip-rule="nonzero"/></clipPath><clipPath id="6e1e4c15d4"><path d="M 156 255 L 219 255 L 219 262.5 L 156 262.5 Z M 156 255 " clip-rule="nonzero"/></clipPath><clipPath id="e383c41a93"><path d="M 162 237 L 176 237 L 176 262.5 L 162 262.5 Z M 162 237 " clip-rule="nonzero"/></clipPath><clipPath id="83c305491d"><path d="M 199 237 L 213 237 L 213 262.5 L 199 262.5 Z M 199 237 " clip-rule="nonzero"/></clipPath></defs><g clip-path="url(#baa1a59888)"><path fill="#000000" d="M 256.058594 237.152344 L 118.941406 237.152344 L 118.941406 137.429688 L 198.910156 137.429688 C 200.628906 137.429688 202.027344 136.035156 202.027344 134.3125 C 202.027344 132.59375 200.628906 131.199219 198.910156 131.199219 L 115.824219 131.199219 C 114.105469 131.199219 112.707031 132.59375 112.707031 134.3125 L 112.707031 240.269531 C 112.707031 241.992188 114.105469 243.386719 115.824219 243.386719 L 259.175781 243.386719 C 260.894531 243.386719 262.292969 241.992188 262.292969 240.269531 L 262.292969 134.3125 C 262.292969 132.59375 260.894531 131.199219 259.175781 131.199219 C 257.457031 131.199219 256.058594 132.59375 256.058594 134.3125 Z M 256.058594 237.152344 " fill-opacity="1" fill-rule="nonzero"/></g><g clip-path="url(#58d0b1321c)"><path fill="#000000" d="M 115.824219 230.921875 L 259.175781 230.921875 C 260.894531 230.921875 262.292969 229.523438 262.292969 227.804688 C 262.292969 226.085938 260.894531 224.6875 259.175781 224.6875 L 115.824219 224.6875 C 114.105469 224.6875 112.707031 226.085938 112.707031 227.804688 C 112.707031 229.523438 114.105469 230.921875 115.824219 230.921875 Z M 115.824219 230.921875 " fill-opacity="1" fill-rule="nonzero"/></g><g clip-path="url(#6e1e4c15d4)"><path fill="#000000" d="M 159.453125 262.085938 L 215.546875 262.085938 C 217.265625 262.085938 218.664062 260.6875 218.664062 258.96875 C 218.664062 257.246094 217.265625 255.851562 215.546875 255.851562 L 159.453125 255.851562 C 157.730469 255.851562 156.335938 257.246094 156.335938 258.96875 C 156.335938 260.6875 157.730469 262.085938 159.453125 262.085938 Z M 159.453125 262.085938 " fill-opacity="1" fill-rule="nonzero"/></g><g clip-path="url(#e383c41a93)"><path fill="#000000" d="M 168.640625 259.957031 L 174.871094 241.261719 C 175.425781 239.621094 174.53125 237.851562 172.910156 237.316406 C 171.269531 236.765625 169.5 237.65625 168.964844 239.28125 L 162.730469 257.976562 C 162.179688 259.617188 163.074219 261.386719 164.695312 261.921875 C 166.335938 262.472656 168.105469 261.582031 168.640625 259.957031 Z M 168.640625 259.957031 " fill-opacity="1" fill-rule="nonzero"/></g><g clip-path="url(#83c305491d)"><path fill="#000000" d="M 206.359375 259.957031 L 200.128906 241.261719 C 199.574219 239.621094 200.46875 237.851562 202.089844 237.316406 C 203.730469 236.765625 205.5 237.65625 206.035156 239.28125 L 212.269531 257.976562 C 212.820312 259.617188 211.925781 261.386719 210.304688 261.921875 C 208.664062 262.472656 206.894531 261.582031 206.359375 259.957031 Z M 206.359375 259.957031 " fill-opacity="1" fill-rule="nonzero"/></g><path fill="#000000" d="M 245.964844 140.464844 L 182.191406 196.460938 C 181.59375 196.980469 178.75 192.972656 175.585938 189.855469 C 172.144531 186.464844 168.414062 183.898438 168.980469 183.25 L 224.976562 119.480469 C 230.753906 112.96875 240.476562 112.679688 246.613281 118.828125 C 252.78125 124.980469 252.472656 134.6875 245.964844 140.464844 Z M 242.214844 123.230469 C 238.59375 119.625 233.042969 119.789062 229.652344 123.601562 L 175.585938 185.164062 L 180.277344 189.855469 L 241.824219 135.808594 C 245.65625 132.398438 245.835938 126.847656 242.214844 123.230469 Z M 242.214844 123.230469 " fill-opacity="1" fill-rule="nonzero"/><path fill="#000000" d="M 142.230469 211.621094 C 140.367188 210.113281 140.835938 207.144531 143.074219 206.28125 C 147.085938 204.757812 149.179688 201.917969 152.003906 195.390625 C 154.535156 189.546875 155.234375 188.183594 157.214844 186.1875 C 163.300781 180.101562 173.167969 180.101562 179.253906 186.1875 C 185.339844 192.273438 185.339844 202.144531 179.253906 208.230469 C 171.058594 216.410156 152.910156 220.191406 142.230469 211.621094 Z M 174.839844 203.816406 C 178.492188 200.164062 178.492188 194.253906 174.839844 190.601562 C 171.1875 186.953125 165.28125 186.953125 161.628906 190.601562 C 160.460938 191.773438 159.84375 192.957031 157.730469 197.859375 C 155.445312 203.148438 153.382812 206.671875 150.476562 209.121094 C 158.558594 211.964844 169.695312 208.976562 174.839844 203.816406 Z M 174.839844 203.816406 " fill-opacity="1" fill-rule="nonzero"/><path fill="#000000" d="M 181.949219 174.484375 L 190.941406 183.429688 C 192.160156 184.648438 194.121094 184.648438 195.339844 183.429688 C 196.558594 182.210938 196.558594 180.230469 195.339844 179.015625 L 186.347656 170.070312 C 185.128906 168.855469 183.148438 168.871094 181.933594 170.085938 C 180.714844 171.304688 180.730469 173.269531 181.949219 174.484375 Z M 181.949219 174.484375 " fill-opacity="1" fill-rule="nonzero"/></svg>