<svg xmlns="http://www.w3.org/2000/svg" xmlns:xlink="http://www.w3.org/1999/xlink" width="500" zoomAndPan="magnify" viewBox="0 0 375 374.999991" height="500" preserveAspectRatio="xMidYMid meet" version="1.0"><defs><clipPath id="e68cb24c21"><path d="M 114.09375 130.425781 L 223 130.425781 L 223 262.488281 L 114.09375 262.488281 Z M 114.09375 130.425781 " clip-rule="nonzero"/></clipPath><clipPath id="79a20312be"><path d="M 152 112.5 L 185 112.5 L 185 133 L 152 133 Z M 152 112.5 " clip-rule="nonzero"/></clipPath><clipPath id="fb3a755dd0"><path d="M 169.488281 151 L 261.09375 151 L 261.09375 242.296875 L 169.488281 242.296875 Z M 169.488281 151 " clip-rule="nonzero"/></clipPath></defs><path fill="#212121" d="M 208.28125 252.234375 L 128.789062 252.234375 C 126.347656 252.234375 124.359375 250.25 124.359375 247.8125 L 124.359375 145.339844 C 124.359375 142.898438 126.347656 140.914062 128.789062 140.914062 L 142.730469 140.914062 C 144.027344 140.914062 145.078125 141.964844 145.078125 143.257812 C 145.078125 144.550781 144.027344 145.601562 142.730469 145.601562 L 129.050781 145.601562 L 129.050781 247.546875 L 208.019531 247.546875 L 208.019531 239.503906 C 208.019531 238.210938 209.066406 237.160156 210.363281 237.160156 C 211.660156 237.160156 212.710938 238.210938 212.710938 239.503906 L 212.710938 247.8125 C 212.710938 250.25 210.722656 252.234375 208.28125 252.234375 " fill-opacity="1" fill-rule="evenodd"/><path fill="#212121" d="M 210.363281 155.988281 C 209.070312 155.988281 208.019531 154.941406 208.019531 153.644531 L 208.019531 145.601562 L 194.339844 145.601562 C 193.042969 145.601562 191.996094 144.550781 191.996094 143.257812 C 191.996094 141.964844 193.042969 140.914062 194.339844 140.914062 L 208.28125 140.914062 C 210.722656 140.914062 212.710938 142.898438 212.710938 145.339844 L 212.710938 153.644531 C 212.710938 154.941406 211.660156 155.988281 210.363281 155.988281 Z M 208.28125 145.601562 L 208.28125 145.601562 " fill-opacity="1" fill-rule="evenodd"/><path fill="#212121" d="M 194.339844 150.222656 L 142.730469 150.222656 C 141.433594 150.222656 140.382812 149.171875 140.382812 147.878906 L 140.382812 129.253906 C 140.382812 125.449219 143.484375 122.355469 147.292969 122.355469 L 154.792969 122.355469 C 156.085938 122.355469 157.136719 123.40625 157.136719 124.699219 C 157.136719 125.992188 156.085938 127.042969 154.792969 127.042969 L 147.292969 127.042969 C 146.070312 127.042969 145.078125 128.035156 145.078125 129.253906 L 145.078125 145.535156 L 191.992188 145.535156 L 191.992188 129.253906 C 191.992188 128.035156 191 127.042969 189.777344 127.042969 L 182.277344 127.042969 C 180.984375 127.042969 179.933594 125.992188 179.933594 124.699219 C 179.933594 123.40625 180.984375 122.355469 182.277344 122.355469 L 189.777344 122.355469 C 193.585938 122.355469 196.683594 125.449219 196.683594 129.253906 L 196.683594 147.878906 C 196.683594 149.171875 195.632812 150.222656 194.339844 150.222656 " fill-opacity="1" fill-rule="evenodd"/><g clip-path="url(#e68cb24c21)"><path fill="#212121" d="M 216.460938 262.488281 L 120.609375 262.488281 C 117.015625 262.488281 114.09375 259.570312 114.09375 255.984375 L 114.09375 137.167969 C 114.09375 133.578125 117.015625 130.660156 120.609375 130.660156 L 142.730469 130.660156 C 144.023438 130.660156 145.074219 131.710938 145.074219 133.003906 C 145.074219 134.300781 144.023438 135.347656 142.730469 135.347656 L 120.609375 135.347656 C 119.605469 135.347656 118.785156 136.164062 118.785156 137.167969 L 118.785156 255.984375 C 118.785156 256.984375 119.605469 257.804688 120.609375 257.804688 L 216.460938 257.804688 C 217.464844 257.804688 218.285156 256.984375 218.285156 255.984375 L 218.285156 239.5 C 218.285156 238.207031 219.332031 237.15625 220.628906 237.15625 C 221.925781 237.15625 222.976562 238.207031 222.976562 239.5 L 222.976562 255.984375 C 222.976562 259.570312 220.054688 262.488281 216.460938 262.488281 " fill-opacity="1" fill-rule="evenodd"/></g><path fill="#212121" d="M 220.628906 155.996094 C 219.332031 155.996094 218.285156 154.945312 218.285156 153.652344 L 218.285156 137.167969 C 218.285156 136.164062 217.464844 135.347656 216.460938 135.347656 L 194.339844 135.347656 C 193.042969 135.347656 191.996094 134.300781 191.996094 133.003906 C 191.996094 131.710938 193.042969 130.660156 194.339844 130.660156 L 216.460938 130.660156 C 220.054688 130.660156 222.976562 133.578125 222.976562 137.167969 L 222.976562 153.652344 C 222.976562 154.945312 221.925781 155.996094 220.628906 155.996094 " fill-opacity="1" fill-rule="evenodd"/><g clip-path="url(#79a20312be)"><path fill="#212121" d="M 182.277344 132.476562 L 154.792969 132.476562 C 153.496094 132.476562 152.445312 131.429688 152.445312 130.132812 L 152.445312 116.824219 C 152.445312 114.457031 154.375 112.527344 156.746094 112.527344 L 180.324219 112.527344 C 182.695312 112.527344 184.625 114.457031 184.625 116.824219 L 184.625 130.132812 C 184.625 131.429688 183.574219 132.476562 182.277344 132.476562 Z M 157.136719 127.792969 L 179.933594 127.792969 L 179.933594 117.214844 L 157.136719 117.214844 L 157.136719 127.792969 " fill-opacity="1" fill-rule="evenodd"/></g><path fill="#212121" d="M 181.851562 171.695312 L 160.261719 171.695312 C 158.964844 171.695312 157.914062 170.644531 157.914062 169.351562 C 157.914062 168.058594 158.964844 167.007812 160.261719 167.007812 L 181.851562 167.007812 C 183.144531 167.007812 184.195312 168.058594 184.195312 169.351562 C 184.195312 170.644531 183.144531 171.695312 181.851562 171.695312 " fill-opacity="1" fill-rule="evenodd"/><path fill="#212121" d="M 143.324219 173.574219 C 142.722656 173.574219 142.125 173.34375 141.664062 172.886719 L 138.414062 169.640625 C 137.496094 168.726562 137.496094 167.242188 138.414062 166.328125 C 139.328125 165.414062 140.8125 165.414062 141.730469 166.328125 L 143.324219 167.917969 L 149.191406 162.054688 C 150.109375 161.140625 151.59375 161.140625 152.511719 162.054688 C 153.425781 162.96875 153.425781 164.453125 152.511719 165.371094 L 144.984375 172.886719 C 144.523438 173.34375 143.921875 173.574219 143.324219 173.574219 " fill-opacity="1" fill-rule="evenodd"/><path fill="#212121" d="M 172.761719 191.855469 L 160.261719 191.855469 C 158.964844 191.855469 157.914062 190.808594 157.914062 189.511719 C 157.914062 188.21875 158.964844 187.167969 160.261719 187.167969 L 172.761719 187.167969 C 174.058594 187.167969 175.109375 188.21875 175.109375 189.511719 C 175.109375 190.808594 174.058594 191.855469 172.761719 191.855469 " fill-opacity="1" fill-rule="evenodd"/><path fill="#212121" d="M 143.324219 193.734375 C 142.722656 193.734375 142.125 193.507812 141.664062 193.050781 L 138.414062 189.804688 C 137.496094 188.886719 137.496094 187.402344 138.414062 186.488281 C 139.328125 185.574219 140.8125 185.574219 141.730469 186.488281 L 143.324219 188.078125 L 149.191406 182.214844 C 150.109375 181.304688 151.59375 181.304688 152.511719 182.214844 C 153.425781 183.132812 153.425781 184.617188 152.511719 185.53125 L 144.984375 193.050781 C 144.523438 193.507812 143.921875 193.734375 143.324219 193.734375 " fill-opacity="1" fill-rule="evenodd"/><path fill="#212121" d="M 174.214844 212.019531 L 160.261719 212.019531 C 158.964844 212.019531 157.914062 210.96875 157.914062 209.675781 C 157.914062 208.378906 158.964844 207.332031 160.261719 207.332031 L 174.214844 207.332031 C 175.511719 207.332031 176.5625 208.378906 176.5625 209.675781 C 176.5625 210.96875 175.511719 212.019531 174.214844 212.019531 " fill-opacity="1" fill-rule="evenodd"/><path fill="#212121" d="M 143.324219 213.898438 C 142.703125 213.898438 142.105469 213.652344 141.664062 213.210938 L 138.414062 209.964844 C 137.496094 209.050781 137.496094 207.566406 138.414062 206.652344 C 139.328125 205.734375 140.8125 205.734375 141.730469 206.652344 L 143.324219 208.242188 L 149.191406 202.378906 C 150.109375 201.464844 151.59375 201.464844 152.511719 202.378906 C 153.425781 203.292969 153.425781 204.777344 152.511719 205.691406 L 144.984375 213.210938 C 144.542969 213.652344 143.945312 213.898438 143.324219 213.898438 " fill-opacity="1" fill-rule="evenodd"/><path fill="#212121" d="M 187.824219 232.179688 L 160.261719 232.179688 C 158.964844 232.179688 157.914062 231.128906 157.914062 229.835938 C 157.914062 228.542969 158.964844 227.492188 160.261719 227.492188 L 187.824219 227.492188 C 189.121094 227.492188 190.167969 228.542969 190.167969 229.835938 C 190.167969 231.128906 189.121094 232.179688 187.824219 232.179688 " fill-opacity="1" fill-rule="evenodd"/><path fill="#212121" d="M 143.324219 234.058594 C 142.722656 234.058594 142.125 233.832031 141.664062 233.371094 L 138.414062 230.128906 C 137.496094 229.210938 137.496094 227.730469 138.414062 226.8125 C 139.328125 225.898438 140.8125 225.898438 141.730469 226.8125 L 143.324219 228.402344 L 149.191406 222.539062 C 150.109375 221.625 151.59375 221.625 152.511719 222.539062 C 153.425781 223.457031 153.425781 224.941406 152.511719 225.855469 L 144.984375 233.371094 C 144.523438 233.832031 143.921875 234.058594 143.324219 234.058594 " fill-opacity="1" fill-rule="evenodd"/><g clip-path="url(#fb3a755dd0)"><path fill="#212121" d="M 215.472656 242.144531 C 209.316406 242.144531 203.34375 240.941406 197.710938 238.5625 C 192.273438 236.265625 187.394531 232.980469 183.207031 228.800781 C 179.023438 224.617188 175.734375 219.746094 173.433594 214.316406 C 171.050781 208.691406 169.84375 202.722656 169.84375 196.574219 C 169.84375 190.429688 171.050781 184.460938 173.433594 178.835938 C 175.734375 173.40625 179.023438 168.535156 183.207031 164.351562 C 187.394531 160.171875 192.273438 156.886719 197.710938 154.589844 C 203.34375 152.210938 209.320312 151.007812 215.472656 151.007812 C 221.625 151.007812 227.605469 152.210938 233.238281 154.589844 C 238.671875 156.886719 243.550781 160.171875 247.738281 164.351562 C 251.921875 168.535156 255.210938 173.40625 257.511719 178.832031 C 259.894531 184.460938 261.101562 190.429688 261.101562 196.574219 C 261.101562 202.722656 259.894531 208.691406 257.511719 214.316406 C 255.210938 219.746094 251.921875 224.617188 247.738281 228.800781 C 243.550781 232.980469 238.671875 236.265625 233.238281 238.5625 C 227.605469 240.941406 221.628906 242.144531 215.472656 242.144531 Z M 215.472656 155.691406 C 209.953125 155.691406 204.589844 156.773438 199.535156 158.90625 C 194.660156 160.96875 190.285156 163.914062 186.527344 167.667969 C 182.769531 171.417969 179.820312 175.789062 177.757812 180.660156 C 175.621094 185.703125 174.535156 191.058594 174.535156 196.574219 C 174.535156 202.09375 175.621094 207.445312 177.757812 212.492188 C 179.820312 217.363281 182.769531 221.734375 186.527344 225.484375 C 190.285156 229.238281 194.660156 232.183594 199.539062 234.246094 C 204.585938 236.378906 209.949219 237.460938 215.472656 237.460938 C 220.996094 237.460938 226.359375 236.378906 231.410156 234.242188 C 236.285156 232.183594 240.664062 229.238281 244.421875 225.484375 C 248.175781 221.734375 251.125 217.363281 253.191406 212.492188 C 255.324219 207.449219 256.410156 202.09375 256.410156 196.574219 C 256.410156 191.058594 255.324219 185.703125 253.191406 180.660156 C 251.125 175.789062 248.175781 171.417969 244.421875 167.667969 C 240.664062 163.914062 236.285156 160.96875 231.410156 158.90625 C 226.355469 156.773438 220.996094 155.691406 215.472656 155.691406 " fill-opacity="1" fill-rule="evenodd"/></g><path fill="#212121" d="M 215.472656 232.664062 C 210.59375 232.664062 205.863281 231.710938 201.40625 229.828125 C 197.101562 228.011719 193.238281 225.410156 189.921875 222.09375 C 186.605469 218.78125 183.996094 214.921875 182.175781 210.625 C 180.292969 206.171875 179.335938 201.445312 179.335938 196.574219 C 179.335938 191.703125 180.292969 186.976562 182.175781 182.527344 C 183.996094 178.226562 186.605469 174.367188 189.921875 171.054688 C 193.238281 167.742188 197.101562 165.140625 201.40625 163.320312 C 205.863281 161.4375 210.59375 160.484375 215.472656 160.484375 C 220.351562 160.484375 225.082031 161.4375 229.539062 163.320312 C 233.84375 165.140625 237.707031 167.742188 241.023438 171.054688 C 244.34375 174.367188 246.949219 178.226562 248.769531 182.527344 C 250.652344 186.976562 251.609375 191.703125 251.609375 196.574219 C 251.609375 201.445312 250.652344 206.171875 248.769531 210.625 C 246.949219 214.921875 244.34375 218.78125 241.023438 222.09375 C 237.707031 225.410156 233.84375 228.011719 229.539062 229.828125 C 225.082031 231.710938 220.351562 232.664062 215.472656 232.664062 Z M 215.472656 165.171875 C 198.132812 165.171875 184.03125 179.257812 184.03125 196.574219 C 184.03125 213.890625 198.132812 227.980469 215.472656 227.980469 C 232.8125 227.980469 246.917969 213.890625 246.917969 196.574219 C 246.917969 179.257812 232.8125 165.171875 215.472656 165.171875 " fill-opacity="1" fill-rule="evenodd"/><path fill="#212121" d="M 215.472656 169.910156 C 214.175781 169.910156 213.128906 168.863281 213.128906 167.566406 L 213.128906 162.828125 C 213.128906 161.535156 214.175781 160.484375 215.472656 160.484375 C 216.769531 160.484375 217.820312 161.535156 217.820312 162.828125 L 217.820312 167.566406 C 217.820312 168.863281 216.769531 169.910156 215.472656 169.910156 " fill-opacity="1" fill-rule="evenodd"/><path fill="#212121" d="M 200.953125 173.792969 C 200.140625 173.792969 199.351562 173.375 198.917969 172.621094 L 196.542969 168.515625 C 195.898438 167.398438 196.28125 165.964844 197.402344 165.316406 C 198.527344 164.671875 199.960938 165.054688 200.609375 166.175781 L 202.980469 170.277344 C 203.628906 171.398438 203.246094 172.832031 202.125 173.480469 C 201.753906 173.691406 201.351562 173.792969 200.953125 173.792969 " fill-opacity="1" fill-rule="evenodd"/><path fill="#212121" d="M 190.316406 184.410156 C 189.917969 184.410156 189.515625 184.308594 189.144531 184.09375 L 185.035156 181.722656 C 183.910156 181.078125 183.527344 179.644531 184.175781 178.523438 C 184.824219 177.402344 186.257812 177.019531 187.378906 177.667969 L 191.492188 180.035156 C 192.613281 180.683594 193 182.117188 192.347656 183.238281 C 191.914062 183.988281 191.125 184.410156 190.316406 184.410156 " fill-opacity="1" fill-rule="evenodd"/><path fill="#212121" d="M 186.421875 198.914062 L 181.679688 198.914062 C 180.382812 198.914062 179.332031 197.863281 179.332031 196.570312 C 179.332031 195.277344 180.382812 194.226562 181.679688 194.226562 L 186.421875 194.226562 C 187.71875 194.226562 188.769531 195.277344 188.769531 196.570312 C 188.769531 197.863281 187.71875 198.914062 186.421875 198.914062 " fill-opacity="1" fill-rule="evenodd"/><path fill="#212121" d="M 186.203125 215.785156 C 185.394531 215.785156 184.605469 215.367188 184.167969 214.613281 C 183.523438 213.492188 183.90625 212.0625 185.027344 211.414062 L 189.136719 209.042969 C 190.261719 208.398438 191.695312 208.78125 192.34375 209.902344 C 192.992188 211.023438 192.605469 212.457031 191.484375 213.101562 L 187.375 215.472656 C 187.003906 215.683594 186.601562 215.785156 186.203125 215.785156 " fill-opacity="1" fill-rule="evenodd"/><path fill="#212121" d="M 198.5625 228.140625 C 198.167969 228.140625 197.761719 228.039062 197.394531 227.828125 C 196.269531 227.179688 195.886719 225.746094 196.535156 224.625 L 198.90625 220.519531 C 199.554688 219.398438 200.992188 219.015625 202.113281 219.664062 C 203.234375 220.3125 203.621094 221.746094 202.972656 222.863281 L 200.597656 226.96875 C 200.164062 227.71875 199.375 228.140625 198.5625 228.140625 " fill-opacity="1" fill-rule="evenodd"/><path fill="#212121" d="M 215.460938 232.664062 C 214.164062 232.664062 213.117188 231.617188 213.117188 230.320312 L 213.117188 225.582031 C 213.117188 224.289062 214.164062 223.238281 215.460938 223.238281 C 216.757812 223.238281 217.808594 224.289062 217.808594 225.582031 L 217.808594 230.320312 C 217.808594 231.617188 216.757812 232.664062 215.460938 232.664062 " fill-opacity="1" fill-rule="evenodd"/><path fill="#212121" d="M 232.359375 228.148438 C 231.546875 228.148438 230.757812 227.726562 230.324219 226.976562 L 227.953125 222.871094 C 227.304688 221.75 227.6875 220.316406 228.8125 219.667969 C 229.933594 219.023438 231.367188 219.40625 232.015625 220.527344 L 234.386719 224.632812 C 235.035156 225.753906 234.652344 227.1875 233.53125 227.832031 C 233.160156 228.046875 232.757812 228.148438 232.359375 228.148438 " fill-opacity="1" fill-rule="evenodd"/><path fill="#212121" d="M 244.726562 215.796875 C 244.328125 215.796875 243.925781 215.695312 243.554688 215.484375 L 239.445312 213.113281 C 238.320312 212.46875 237.9375 211.035156 238.585938 209.914062 C 239.234375 208.792969 240.667969 208.40625 241.789062 209.054688 L 245.898438 211.421875 C 247.023438 212.070312 247.40625 213.503906 246.757812 214.625 C 246.324219 215.375 245.535156 215.796875 244.726562 215.796875 " fill-opacity="1" fill-rule="evenodd"/><path fill="#212121" d="M 249.257812 198.925781 L 244.511719 198.925781 C 243.214844 198.925781 242.164062 197.875 242.164062 196.582031 C 242.164062 195.285156 243.214844 194.238281 244.511719 194.238281 L 249.257812 194.238281 C 250.554688 194.238281 251.605469 195.285156 251.605469 196.582031 C 251.605469 197.875 250.554688 198.925781 249.257812 198.925781 " fill-opacity="1" fill-rule="evenodd"/><path fill="#212121" d="M 240.625 184.421875 C 239.8125 184.421875 239.023438 184 238.589844 183.246094 C 237.941406 182.128906 238.328125 180.695312 239.449219 180.046875 L 243.558594 177.675781 C 244.679688 177.03125 246.117188 177.414062 246.765625 178.535156 C 247.414062 179.65625 247.027344 181.089844 245.90625 181.734375 L 241.796875 184.105469 C 241.425781 184.320312 241.023438 184.421875 240.625 184.421875 " fill-opacity="1" fill-rule="evenodd"/><path fill="#212121" d="M 229.992188 173.800781 C 229.59375 173.800781 229.191406 173.699219 228.820312 173.488281 C 227.699219 172.839844 227.316406 171.40625 227.960938 170.285156 L 230.335938 166.183594 C 230.984375 165.058594 232.417969 164.675781 233.539062 165.320312 C 234.664062 165.96875 235.046875 167.402344 234.398438 168.523438 L 232.027344 172.628906 C 231.59375 173.378906 230.804688 173.800781 229.992188 173.800781 " fill-opacity="1" fill-rule="evenodd"/><path fill="#212121" d="M 215.472656 203.058594 C 211.914062 203.058594 209.015625 200.167969 209.015625 196.613281 C 209.015625 193.058594 211.914062 190.164062 215.472656 190.164062 C 219.03125 190.164062 221.929688 193.058594 221.929688 196.613281 C 221.929688 200.167969 219.03125 203.058594 215.472656 203.058594 Z M 215.472656 194.851562 C 214.5 194.851562 213.710938 195.640625 213.710938 196.613281 C 213.710938 197.585938 214.5 198.375 215.472656 198.375 C 216.445312 198.375 217.238281 197.585938 217.238281 196.613281 C 217.238281 195.640625 216.445312 194.851562 215.472656 194.851562 " fill-opacity="1" fill-rule="evenodd"/><path fill="#212121" d="M 218.375 196.058594 C 217.773438 196.058594 217.175781 195.828125 216.714844 195.371094 C 215.800781 194.457031 215.800781 192.972656 216.714844 192.058594 L 225.484375 183.292969 C 226.398438 182.378906 227.882812 182.378906 228.800781 183.289062 C 229.71875 184.207031 229.71875 185.691406 228.800781 186.605469 L 220.035156 195.371094 C 219.578125 195.828125 218.976562 196.058594 218.375 196.058594 " fill-opacity="1" fill-rule="evenodd"/><path fill="#212121" d="M 227.144531 210.617188 C 226.542969 210.617188 225.945312 210.386719 225.488281 209.929688 L 216.710938 201.175781 C 215.796875 200.261719 215.792969 198.777344 216.710938 197.859375 C 217.625 196.945312 219.109375 196.945312 220.027344 197.859375 L 228.800781 206.613281 C 229.71875 207.53125 229.71875 209.015625 228.804688 209.929688 C 228.347656 210.386719 227.746094 210.617188 227.144531 210.617188 " fill-opacity="1" fill-rule="evenodd"/></svg>