<svg xmlns="http://www.w3.org/2000/svg" xmlns:xlink="http://www.w3.org/1999/xlink" width="500" zoomAndPan="magnify" viewBox="0 0 375 374.999991" height="500" preserveAspectRatio="xMidYMid meet" version="1.0"><defs><clipPath id="aa92b91b84"><path d="M 112.5 128.90625 L 262.5 128.90625 L 262.5 226 L 112.5 226 Z M 112.5 128.90625 " clip-rule="nonzero"/></clipPath><clipPath id="f73fa80342"><path d="M 157 178 L 214 178 L 214 245.90625 L 157 245.90625 Z M 157 178 " clip-rule="nonzero"/></clipPath></defs><g clip-path="url(#aa92b91b84)"><path fill="#000000" d="M 237.890625 173.132812 L 235.195312 173.132812 C 234.84375 157.453125 221.953125 144.816406 206.25 144.816406 C 202.617188 144.816406 199.101562 145.519531 195.703125 146.808594 C 189.492188 135.808594 177.890625 128.90625 165.234375 128.90625 C 146.015625 128.90625 130.429688 144.585938 130.429688 163.773438 C 130.429688 167.164062 130.898438 170.558594 131.835938 173.71875 C 120.703125 176.058594 112.5 186.003906 112.5 197.820312 C 112.5 211.390625 123.515625 222.507812 137.109375 222.507812 L 141.796875 222.507812 C 141.445312 223.207031 141.445312 224.027344 141.796875 224.730469 C 142.382812 225.78125 143.90625 226.25 144.960938 225.546875 L 150.9375 222.039062 C 151.640625 221.570312 152.109375 220.867188 152.109375 220.050781 C 152.109375 219.230469 151.640625 218.410156 150.9375 218.058594 L 144.960938 214.550781 C 143.789062 213.847656 142.382812 214.316406 141.796875 215.371094 C 141.328125 216.070312 141.445312 217.007812 141.796875 217.710938 L 137.109375 217.710938 C 126.09375 217.710938 117.1875 208.699219 117.1875 197.703125 C 117.1875 187.640625 124.453125 179.449219 134.179688 177.929688 C 135.117188 178.980469 136.171875 180.152344 137.695312 180.972656 C 138.75 181.671875 140.273438 181.320312 140.976562 180.269531 C 141.679688 179.214844 141.328125 177.695312 140.273438 176.992188 C 138.867188 176.058594 137.8125 174.886719 137.109375 173.953125 C 135.9375 170.558594 135.234375 167.046875 135.234375 163.539062 C 135.117188 147.160156 148.59375 133.585938 165.234375 133.585938 C 176.835938 133.585938 187.5 140.371094 192.421875 150.902344 C 192.65625 151.488281 193.125 151.957031 193.710938 152.070312 C 194.296875 152.304688 195 152.1875 195.46875 151.957031 C 198.75 150.316406 202.382812 149.5 206.132812 149.5 C 219.492188 149.5 230.390625 160.378906 230.390625 173.835938 C 230.390625 175.003906 230.15625 176.175781 230.976562 177.109375 C 231.445312 177.578125 232.03125 177.8125 232.734375 177.8125 L 237.890625 177.8125 C 248.90625 177.8125 257.8125 186.820312 257.8125 197.820312 C 257.8125 208.816406 248.90625 217.828125 237.890625 217.828125 L 228.046875 217.828125 C 228.398438 217.125 228.515625 216.304688 228.046875 215.484375 C 227.34375 214.316406 225.9375 213.964844 224.882812 214.667969 L 218.90625 218.175781 C 218.203125 218.644531 217.734375 219.347656 217.734375 220.167969 C 217.734375 220.984375 218.203125 221.6875 218.789062 222.15625 C 218.789062 222.15625 218.789062 222.15625 218.90625 222.15625 C 218.90625 222.15625 224.882812 225.664062 224.882812 225.664062 C 225.9375 226.25 227.460938 225.898438 228.046875 224.847656 C 228.515625 224.144531 228.398438 223.324219 228.046875 222.625 L 237.773438 222.625 C 251.367188 222.625 262.382812 211.507812 262.382812 197.9375 C 262.5 184.246094 251.484375 173.132812 237.890625 173.132812 Z M 237.890625 173.132812 " fill-opacity="1" fill-rule="nonzero"/></g><g clip-path="url(#f73fa80342)"><path fill="#000000" d="M 185.15625 178.046875 C 171.5625 178.046875 157.03125 182.375 157.03125 190.332031 L 157.03125 233.621094 C 157.03125 241.578125 171.5625 245.90625 185.15625 245.90625 C 198.75 245.90625 213.28125 241.578125 213.28125 233.621094 L 213.28125 190.332031 C 213.28125 182.375 198.75 178.046875 185.15625 178.046875 Z M 185.15625 182.726562 C 199.453125 182.726562 208.59375 187.171875 208.59375 190.332031 C 208.59375 193.492188 199.453125 197.9375 185.15625 197.9375 C 170.859375 197.9375 161.71875 193.492188 161.71875 190.332031 C 161.71875 187.171875 170.859375 182.726562 185.15625 182.726562 Z M 185.15625 241.226562 C 170.859375 241.226562 161.71875 236.78125 161.71875 233.621094 L 161.71875 226.132812 C 167.109375 229.644531 176.25 231.398438 185.15625 231.398438 C 194.0625 231.398438 203.203125 229.527344 208.59375 226.132812 L 208.59375 233.621094 C 208.59375 236.78125 199.453125 241.226562 185.15625 241.226562 Z M 185.15625 226.835938 C 170.859375 226.835938 161.71875 222.390625 161.71875 219.230469 L 161.71875 211.742188 C 167.109375 215.253906 176.25 217.007812 185.15625 217.007812 C 194.0625 217.007812 203.203125 215.136719 208.59375 211.742188 L 208.59375 219.230469 C 208.59375 222.273438 199.453125 226.835938 185.15625 226.835938 Z M 185.15625 212.328125 C 170.859375 212.328125 161.71875 207.882812 161.71875 204.722656 L 161.71875 197.234375 C 167.109375 200.746094 176.25 202.5 185.15625 202.5 C 194.0625 202.5 203.203125 200.628906 208.59375 197.234375 L 208.59375 204.722656 C 208.59375 207.882812 199.453125 212.328125 185.15625 212.328125 Z M 185.15625 212.328125 " fill-opacity="1" fill-rule="nonzero"/></g><path fill="#000000" d="M 166.40625 146.457031 C 166.40625 145.167969 165.351562 144.117188 164.0625 144.117188 C 155.039062 144.117188 147.65625 151.488281 147.65625 160.496094 C 147.65625 161.785156 148.710938 162.835938 150 162.835938 C 151.289062 162.835938 152.34375 161.785156 152.34375 160.496094 C 152.34375 154.0625 157.617188 148.796875 164.0625 148.796875 C 165.351562 148.796875 166.40625 147.742188 166.40625 146.457031 Z M 166.40625 146.457031 " fill-opacity="1" fill-rule="nonzero"/><path fill="#000000" d="M 240.234375 209.636719 C 242.695312 209.636719 245.15625 208.699219 247.03125 206.945312 C 248.789062 205.191406 249.960938 202.96875 250.195312 200.511719 C 250.3125 199.222656 249.375 198.054688 248.085938 197.9375 C 246.796875 197.820312 245.625 198.753906 245.507812 200.042969 C 245.390625 201.328125 244.804688 202.617188 243.867188 203.433594 C 242.8125 204.488281 241.289062 204.957031 239.882812 204.839844 C 238.59375 204.722656 237.421875 205.660156 237.304688 206.945312 C 237.1875 208.230469 238.125 209.402344 239.414062 209.519531 C 239.765625 209.636719 240 209.636719 240.234375 209.636719 Z M 240.234375 209.636719 " fill-opacity="1" fill-rule="nonzero"/></svg>