<svg xmlns="http://www.w3.org/2000/svg" xmlns:xlink="http://www.w3.org/1999/xlink" width="500" zoomAndPan="magnify" viewBox="0 0 375 374.999991" height="500" preserveAspectRatio="xMidYMid meet" version="1.0"><defs><clipPath id="ca1ced2543"><path d="M 112.5 123.375 L 262.5 123.375 L 262.5 251.625 L 112.5 251.625 Z M 112.5 123.375 " clip-rule="nonzero"/></clipPath></defs><g clip-path="url(#ca1ced2543)"><path fill="#000000" d="M 129.277344 191.683594 L 114.972656 191.683594 C 113.640625 191.683594 112.554688 192.765625 112.554688 194.101562 L 112.554688 213.996094 C 112.554688 215.332031 113.640625 216.414062 114.972656 216.414062 L 129.277344 216.414062 C 130.613281 216.414062 131.695312 215.332031 131.695312 213.996094 L 131.695312 194.101562 C 131.695312 192.765625 130.613281 191.683594 129.277344 191.683594 Z M 126.859375 211.578125 L 117.390625 211.578125 L 117.390625 196.519531 L 126.859375 196.519531 Z M 116.984375 174.582031 C 116.316406 173.425781 116.710938 171.945312 117.867188 171.28125 L 190.472656 129.359375 L 184.683594 128.359375 C 183.367188 128.132812 182.488281 126.878906 182.714844 125.5625 C 182.941406 124.25 184.191406 123.367188 185.507812 123.59375 L 197.875 125.734375 C 198.582031 125.855469 199.199219 126.285156 199.558594 126.90625 C 199.917969 127.527344 199.980469 128.277344 199.734375 128.949219 L 195.402344 140.730469 C 195.042969 141.707031 194.117188 142.316406 193.132812 142.316406 C 192.855469 142.316406 192.574219 142.265625 192.296875 142.164062 C 191.046875 141.703125 190.402344 140.316406 190.863281 139.0625 L 192.890625 133.546875 L 120.285156 175.464844 C 119.90625 175.6875 119.488281 175.789062 119.078125 175.789062 C 118.242188 175.792969 117.429688 175.359375 116.984375 174.582031 Z M 224.449219 192.304688 L 224.449219 151.59375 C 224.449219 150.257812 223.367188 149.175781 222.03125 149.175781 L 207.726562 149.175781 C 206.394531 149.175781 205.308594 150.257812 205.308594 151.59375 L 205.308594 189.742188 C 201.253906 189.921875 197.3125 190.539062 193.53125 191.558594 L 193.53125 165.765625 C 193.53125 164.429688 192.449219 163.347656 191.113281 163.347656 L 176.808594 163.347656 C 175.476562 163.347656 174.390625 164.429688 174.390625 165.765625 L 174.390625 201.046875 C 169.847656 204.546875 165.871094 208.746094 162.613281 213.480469 L 162.613281 179.933594 C 162.613281 178.597656 161.53125 177.515625 160.195312 177.515625 L 145.890625 177.515625 C 144.558594 177.515625 143.476562 178.597656 143.476562 179.933594 L 143.476562 213.996094 C 143.476562 215.332031 144.558594 216.414062 145.890625 216.414062 L 160.195312 216.414062 C 160.394531 216.414062 160.589844 216.386719 160.773438 216.339844 C 155.847656 224.550781 153.011719 234.152344 153.011719 244.402344 C 153.011719 245.042969 153.265625 245.65625 153.71875 246.109375 C 154.171875 246.566406 154.789062 246.820312 155.429688 246.820312 L 177.320312 246.820312 C 178.65625 246.820312 179.738281 245.738281 179.738281 244.402344 C 179.738281 228.96875 192.296875 216.414062 207.726562 216.414062 C 223.160156 216.414062 235.714844 228.96875 235.714844 244.402344 C 235.714844 245.738281 236.796875 246.820312 238.132812 246.820312 L 260.027344 246.820312 C 261.359375 246.820312 262.445312 245.738281 262.445312 244.402344 C 262.445312 220.0625 246.464844 199.386719 224.449219 192.304688 Z M 157.777344 211.578125 L 148.308594 211.578125 L 148.308594 182.351562 L 157.777344 182.351562 Z M 205.308594 211.667969 C 201.089844 211.976562 197.085938 213.085938 193.457031 214.847656 L 184.914062 200.054688 C 191.082031 196.867188 197.992188 194.929688 205.308594 194.578125 Z M 210.144531 194.578125 C 217.464844 194.929688 224.375 196.867188 230.539062 200.054688 L 222 214.847656 C 218.367188 213.085938 214.367188 211.976562 210.144531 211.667969 Z M 219.613281 154.011719 L 219.613281 190.992188 C 216.546875 190.308594 213.382812 189.882812 210.144531 189.742188 L 210.144531 154.011719 Z M 179.226562 168.179688 L 188.695312 168.179688 L 188.695312 193.101562 C 185.378906 194.335938 182.207031 195.886719 179.226562 197.710938 Z M 174.992188 241.984375 L 157.90625 241.984375 C 158.257812 234.664062 160.195312 227.753906 163.378906 221.589844 L 178.171875 230.128906 C 176.414062 233.761719 175.300781 237.761719 174.992188 241.984375 Z M 180.597656 225.945312 L 165.804688 217.40625 C 169.660156 211.433594 174.761719 206.335938 180.730469 202.476562 L 189.273438 217.273438 C 185.867188 219.597656 182.921875 222.542969 180.597656 225.945312 Z M 226.183594 217.273438 L 234.722656 202.476562 C 240.695312 206.335938 245.792969 211.433594 249.652344 217.40625 L 234.855469 225.945312 C 232.535156 222.542969 229.585938 219.597656 226.183594 217.273438 Z M 240.464844 241.984375 C 240.152344 237.761719 239.042969 233.761719 237.28125 230.128906 L 252.074219 221.589844 C 255.261719 227.753906 257.199219 234.664062 257.550781 241.984375 Z M 217.628906 231.082031 L 210.828125 237.882812 C 209.890625 237.433594 208.835938 237.179688 207.726562 237.179688 C 203.746094 237.179688 200.507812 240.421875 200.507812 244.402344 C 200.507812 248.382812 203.746094 251.621094 207.726562 251.621094 C 211.710938 251.621094 214.949219 248.382812 214.949219 244.402344 C 214.949219 243.292969 214.695312 242.242188 214.246094 241.300781 L 221.046875 234.5 C 221.992188 233.558594 221.992188 232.027344 221.046875 231.082031 C 220.105469 230.136719 218.574219 230.136719 217.628906 231.082031 Z M 207.726562 246.789062 C 206.414062 246.789062 205.34375 245.71875 205.34375 244.402344 C 205.34375 243.085938 206.414062 242.015625 207.726562 242.015625 C 209.042969 242.015625 210.113281 243.085938 210.113281 244.402344 C 210.113281 245.71875 209.042969 246.789062 207.726562 246.789062 Z M 207.726562 246.789062 " fill-opacity="1" fill-rule="nonzero"/></g></svg>