<svg xmlns="http://www.w3.org/2000/svg" xmlns:xlink="http://www.w3.org/1999/xlink" width="500" zoomAndPan="magnify" viewBox="0 0 375 374.999991" height="500" preserveAspectRatio="xMidYMid meet" version="1.0"><defs><clipPath id="73b2ce5d8f"><path d="M 112.5 153.65625 L 262.5 153.65625 L 262.5 221 L 112.5 221 Z M 112.5 153.65625 " clip-rule="nonzero"/></clipPath></defs><g clip-path="url(#73b2ce5d8f)"><path fill="#000000" d="M 226.375 198.46875 L 124.566406 198.46875 C 121.375 198.46875 118.3125 197.203125 116.058594 194.953125 C 113.796875 192.703125 112.53125 189.648438 112.53125 186.464844 L 112.53125 165.660156 C 112.53125 162.476562 113.796875 159.421875 116.058594 157.171875 C 118.3125 154.921875 121.375 153.65625 124.566406 153.65625 L 234.140625 153.65625 C 237.332031 153.65625 240.394531 154.921875 242.648438 157.171875 C 244.90625 159.421875 246.175781 162.476562 246.175781 165.660156 L 246.175781 186.449219 L 254.878906 188.183594 C 255.605469 188.328125 256.191406 188.859375 256.40625 189.566406 C 256.621094 190.273438 256.425781 191.039062 255.90625 191.5625 C 255.90625 191.5625 251.542969 195.910156 251.542969 195.910156 L 261.683594 206.019531 C 262.464844 206.800781 262.464844 208.066406 261.683594 208.847656 L 250.128906 220.371094 C 249.339844 221.152344 248.074219 221.152344 247.292969 220.371094 C 247.292969 220.371094 237.152344 210.261719 237.152344 210.261719 L 232.792969 214.609375 C 232.269531 215.128906 231.503906 215.324219 230.792969 215.109375 C 230.085938 214.894531 229.554688 214.308594 229.410156 213.585938 Z M 228.152344 186.933594 L 250.417969 191.375 C 250.417969 191.375 247.292969 194.492188 247.292969 194.492188 C 246.503906 195.273438 246.503906 196.542969 247.292969 197.324219 L 257.425781 207.433594 C 257.425781 207.433594 248.707031 216.125 248.707031 216.125 C 248.707031 216.125 238.570312 206.019531 238.570312 206.019531 C 237.785156 205.234375 236.519531 205.234375 235.730469 206.019531 L 232.605469 209.136719 Z M 242.164062 185.648438 L 242.164062 165.660156 C 242.164062 163.539062 241.316406 161.503906 239.8125 160 C 238.308594 158.5 236.265625 157.65625 234.140625 157.65625 L 124.566406 157.65625 C 122.441406 157.65625 120.398438 158.5 118.894531 160 C 117.390625 161.503906 116.542969 163.539062 116.542969 165.660156 L 116.542969 186.464844 C 116.542969 188.589844 117.390625 190.625 118.894531 192.125 C 120.398438 193.625 122.441406 194.46875 124.566406 194.46875 L 225.574219 194.46875 L 223.628906 184.777344 C 223.5 184.121094 223.703125 183.441406 224.175781 182.96875 C 224.648438 182.496094 225.332031 182.292969 225.988281 182.421875 Z M 132.710938 167.945312 L 139.132812 185.550781 C 139.417969 186.332031 140.164062 186.859375 140.996094 186.867188 C 141.832031 186.875 142.585938 186.363281 142.886719 185.585938 L 147.722656 173.117188 C 147.722656 173.117188 151.960938 185.511719 151.960938 185.511719 C 152.230469 186.3125 152.984375 186.855469 153.835938 186.867188 C 154.6875 186.875 155.449219 186.347656 155.742188 185.550781 L 162.164062 167.945312 C 162.539062 166.90625 162 165.757812 160.960938 165.378906 C 159.921875 165.003906 158.769531 165.539062 158.390625 166.578125 L 153.917969 178.84375 C 153.917969 178.84375 149.734375 166.613281 149.734375 166.613281 C 149.464844 165.816406 148.722656 165.277344 147.878906 165.261719 C 147.035156 165.242188 146.269531 165.753906 145.96875 166.539062 L 141.074219 179.167969 C 141.074219 179.167969 136.484375 166.578125 136.484375 166.578125 C 136.105469 165.539062 134.949219 165.003906 133.910156 165.378906 C 132.871094 165.757812 132.335938 166.90625 132.710938 167.945312 Z M 195.304688 167.945312 L 201.722656 185.550781 C 202.007812 186.332031 202.753906 186.859375 203.589844 186.867188 C 204.425781 186.875 205.179688 186.363281 205.480469 185.585938 L 210.3125 173.117188 C 210.3125 173.117188 214.550781 185.511719 214.550781 185.511719 C 214.824219 186.3125 215.578125 186.855469 216.429688 186.867188 C 217.277344 186.875 218.042969 186.347656 218.335938 185.550781 L 224.753906 167.945312 C 225.132812 166.90625 224.59375 165.757812 223.554688 165.378906 C 222.515625 165.003906 221.359375 165.539062 220.984375 166.578125 L 216.507812 178.84375 C 216.507812 178.84375 212.328125 166.613281 212.328125 166.613281 C 212.054688 165.816406 211.3125 165.277344 210.46875 165.261719 C 209.628906 165.242188 208.863281 165.753906 208.5625 166.539062 L 203.664062 179.167969 C 203.664062 179.167969 199.074219 166.578125 199.074219 166.578125 C 198.699219 165.539062 197.542969 165.003906 196.503906 165.378906 C 195.464844 165.757812 194.925781 166.90625 195.304688 167.945312 Z M 164.007812 167.945312 L 170.425781 185.550781 C 170.710938 186.332031 171.457031 186.859375 172.292969 186.867188 C 173.128906 186.875 173.882812 186.363281 174.183594 185.585938 L 179.019531 173.117188 C 179.019531 173.117188 183.253906 185.511719 183.253906 185.511719 C 183.527344 186.3125 184.28125 186.855469 185.132812 186.867188 C 185.984375 186.875 186.746094 186.347656 187.039062 185.550781 L 193.457031 167.945312 C 193.835938 166.90625 193.296875 165.757812 192.257812 165.378906 C 191.21875 165.003906 190.0625 165.539062 189.6875 166.578125 L 185.214844 178.84375 C 185.214844 178.84375 181.03125 166.613281 181.03125 166.613281 C 180.757812 165.816406 180.015625 165.277344 179.175781 165.261719 C 178.332031 165.242188 177.566406 165.753906 177.265625 166.539062 L 172.371094 179.167969 C 172.371094 179.167969 167.78125 166.578125 167.78125 166.578125 C 167.402344 165.539062 166.246094 165.003906 165.207031 165.378906 C 164.167969 165.757812 163.628906 166.90625 164.007812 167.945312 Z M 164.007812 167.945312 " fill-opacity="1" fill-rule="evenodd"/></g></svg>